G04 ================== begin FILE IDENTIFICATION RECORD ==================*
G04 Layout Name:  hotpixel-routed.brd*
G04 Film Name:    BOTTOM*
G04 File Format:  Gerber RS274X*
G04 File Origin:  Cadence Allegro 16.5-S026*
G04 Origin Date:  Sun Dec 16 15:43:57 2012*
G04 *
G04 Layer:  ETCH/BOTTOM*
G04 Layer:  PIN/BOTTOM*
G04 Layer:  VIA CLASS/BOTTOM*
G04 *
G04 Offset:    (0.0000 0.0000)*
G04 Mirror:    No*
G04 Mode:      Positive*
G04 Rotation:  0*
G04 FullContactRelief:  No*
G04 UndefLineWidth:     0.0000*
G04 ================== end FILE IDENTIFICATION RECORD ====================*
%FSLAX25Y25*MOMM*%
%IR0*IPPOS*OFA0.00000B0.00000*MIA0B0*SFA1.00000B1.00000*%
%ADD10C,.4*%
%ADD11C,.6096*%
%ADD12C,1.45*%
%ADD14C,1.524*%
%ADD13C,2.85*%
%ADD16R,1.45X1.45*%
%ADD15R,1.524X1.524*%
%ADD17C,.25*%
G75*
%LPD*%
G75*
G54D10*
X-2929990Y-2929990D03*
X-2854990D03*
X-2892490Y-2854990D03*
X-2817490D03*
X-2929990Y-2779990D03*
X-2854990D03*
X-2929990Y-2629990D03*
Y-2479990D03*
Y-2329990D03*
Y-2179990D03*
X-2854990D03*
X-2892490Y-2104990D03*
X-2929990Y-2029990D03*
X-2854990D03*
X-2892490Y-1954990D03*
X-2929990Y-1879990D03*
X-2854990D03*
X-2892490Y-1804990D03*
X-2929990Y-1729990D03*
X-2854990D03*
X-2892490Y-1654990D03*
X-2929990Y-1579990D03*
X-2854990D03*
X-2892490Y-1504990D03*
X-2543160Y-1121660D03*
X-2580660Y-1046660D03*
X-2618160Y-971660D03*
X-2543160D03*
X-2929990Y-1429990D03*
X-2854990D03*
X-2892490Y-1354990D03*
X-2929990Y-1279990D03*
X-2854990D03*
X-2892490Y-1204990D03*
X-2929990Y-1129990D03*
X-2854990D03*
X-2892490Y-1054990D03*
X-2929990Y-979990D03*
X-2854990D03*
X-2580660Y-896660D03*
X-2618160Y-821660D03*
X-2543160D03*
X-2580660Y-746660D03*
X-2618160Y-671660D03*
X-2543160D03*
X-2580660Y-596660D03*
X-2618160Y-521660D03*
X-2543160D03*
X-2580660Y-446660D03*
X-2892490Y-904990D03*
X-2929990Y-829990D03*
X-2854990D03*
X-2892490Y-754990D03*
X-2929990Y-679990D03*
X-2854990D03*
X-2892490Y-604990D03*
X-2929990Y-529990D03*
X-2854990D03*
X-2892490Y-454990D03*
X-2618160Y-371660D03*
X-2543160D03*
X-2580660Y-296660D03*
X-2618160Y-221660D03*
X-2543160D03*
X-2580660Y-146660D03*
X-2618160Y-71660D03*
X-2543160D03*
X-2580660Y3340D03*
X-2618160Y78340D03*
X-2543160D03*
X-2929990Y-379990D03*
X-2854990D03*
X-2892490Y-304990D03*
X-2929990Y-229990D03*
X-2854990D03*
X-2892490Y-154990D03*
X-2929990Y-79990D03*
X-2854990D03*
X-2892490Y-4990D03*
X-2929990Y70010D03*
X-2854990D03*
X-2580660Y153340D03*
X-2618160Y228340D03*
X-2543160D03*
X-2580660Y303340D03*
X-2618160Y378340D03*
X-2543160D03*
X-2580660Y453340D03*
X-2618160Y528340D03*
X-2543160D03*
X-2580660Y603340D03*
X-2543160Y678340D03*
X-2892490Y145010D03*
X-2929990Y220010D03*
X-2854990D03*
X-2892490Y295010D03*
X-2929990Y370010D03*
X-2854990D03*
X-2892490Y445010D03*
X-2929990Y520010D03*
X-2854990D03*
X-2892490Y595010D03*
X-2929990Y670010D03*
X-2854990D03*
X-2892490Y745010D03*
X-2817490D03*
X-2929990Y820010D03*
X-2854990D03*
X-2779990D03*
X-2704990D03*
X-2892490Y895010D03*
X-2817490D03*
X-2742490D03*
X-2667490D03*
X-2929990Y970010D03*
X-2854990D03*
X-2779990D03*
X-2704990D03*
X-2629990D03*
X-2554990D03*
X-2892490Y1045010D03*
X-2817490D03*
X-2742490D03*
X-2667490D03*
X-2592490D03*
X-2929990Y1120010D03*
X-2854990D03*
X-2779990D03*
X-2704990D03*
X-2629990D03*
X-2554990D03*
X-2892490Y1195010D03*
X-2817490D03*
X-2742490D03*
X-2667490D03*
X-2592490D03*
X-2929990Y1270010D03*
X-2854990D03*
X-2779990D03*
X-2704990D03*
X-2629990D03*
X-2554990D03*
X-2892490Y1345010D03*
X-2817490D03*
X-2742490D03*
X-2667490D03*
X-2592490D03*
X-2929990Y1420010D03*
X-2854990D03*
X-2779990D03*
X-2704990D03*
X-2629990D03*
X-2554990D03*
X-2892490Y1495010D03*
X-2817490D03*
X-2742490D03*
X-2667490D03*
X-2592490D03*
X-2929990Y1570010D03*
X-2854990D03*
X-2779990D03*
X-2704990D03*
X-2629990D03*
X-2554990D03*
X-2892490Y1645010D03*
X-2817490D03*
X-2742490D03*
X-2667490D03*
X-2592490D03*
X-2929990Y1720010D03*
X-2854990D03*
X-2779990D03*
X-2704990D03*
X-2629990D03*
X-2554990D03*
X-2892490Y1795010D03*
X-2817490D03*
X-2742490D03*
X-2667490D03*
X-2592490D03*
X-2929990Y1870010D03*
X-2854990D03*
X-2779990D03*
X-2704990D03*
X-2629990D03*
X-2554990D03*
X-2892490Y1945010D03*
X-2817490D03*
X-2742490D03*
X-2667490D03*
X-2592490D03*
X-2929990Y2020010D03*
X-2854990D03*
X-2779990D03*
X-2704990D03*
X-2629990D03*
X-2554990D03*
X-2892490Y2095010D03*
X-2817490D03*
X-2742490D03*
X-2667490D03*
X-2592490D03*
X-2929990Y2170010D03*
X-2854990D03*
X-2779990D03*
X-2704990D03*
X-2629990D03*
X-2554990D03*
X-2892490Y2245010D03*
X-2817490D03*
X-2742490D03*
X-2667490D03*
X-2592490D03*
X-2929990Y2320010D03*
X-2854990D03*
X-2779990D03*
X-2704990D03*
X-2629990D03*
X-2554990D03*
X-2892490Y2395010D03*
X-2817490D03*
X-2742490D03*
X-2667490D03*
X-2592490D03*
X-2929990Y2470010D03*
X-2854990D03*
X-2779990D03*
X-2704990D03*
X-2629990D03*
X-2554990D03*
X-2892490Y2545010D03*
X-2817490D03*
X-2742490D03*
X-2667490D03*
X-2592490D03*
X-2929990Y2620010D03*
X-2854990D03*
X-2779990D03*
X-2704990D03*
X-2629990D03*
X-2554990D03*
X-2892490Y2695010D03*
X-2817490D03*
X-2742490D03*
X-2667490D03*
X-2592490D03*
X-2929990Y2770010D03*
X-2854990D03*
X-2779990D03*
X-2704990D03*
X-2629990D03*
X-2554990D03*
X-2892490Y2845010D03*
X-2817490D03*
X-2742490D03*
X-2667490D03*
X-2592490D03*
X-2929990Y2920010D03*
X-2854990D03*
X-2779990D03*
X-2704990D03*
X-2629990D03*
X-2554990D03*
X-2286800Y-2554990D03*
X-2211800D03*
X-2334980Y-2049440D03*
X-2324300Y-2479990D03*
X-2249300D03*
X-2024300Y-2329990D03*
Y-2179990D03*
Y-2029990D03*
Y-1729990D03*
X-2468160Y-1121660D03*
X-2505660Y-1046660D03*
X-2430660D03*
X-2468160Y-971660D03*
X-2024300Y-1429990D03*
Y-1279990D03*
Y-1129990D03*
Y-979990D03*
X-2505660Y-896660D03*
X-2430660D03*
X-2468160Y-821660D03*
X-2505660Y-746660D03*
X-2430660D03*
X-2468160Y-671660D03*
X-2505660Y-596660D03*
X-2430660D03*
X-2468160Y-521660D03*
X-2505660Y-446660D03*
X-2430660D03*
X-2024300Y-829990D03*
Y-679990D03*
Y-529990D03*
X-2468160Y-371660D03*
X-2505660Y-296660D03*
X-2430660D03*
X-2468160Y-221660D03*
X-2505660Y-146660D03*
X-2430660D03*
X-2468160Y-71660D03*
X-2505660Y3340D03*
X-2430660D03*
X-2468160Y78340D03*
X-2024300Y-379990D03*
Y-229990D03*
Y-79990D03*
Y70010D03*
X-2505660Y153340D03*
X-2430660D03*
X-2468160Y228340D03*
X-2505660Y303340D03*
X-2430660D03*
X-2468160Y378340D03*
X-2505660Y453340D03*
X-2430660D03*
X-2468160Y528340D03*
X-2505660Y603340D03*
X-2430660D03*
X-2468160Y678340D03*
X-2024300Y220010D03*
Y370010D03*
Y520010D03*
X-2505660Y753340D03*
X-2430660D03*
X-2024300Y970010D03*
X-2517490Y1045010D03*
X-2479990Y1120010D03*
X-2517490Y1195010D03*
X-2442490D03*
X-2018280Y1516830D03*
X-2479990Y1270010D03*
X-2517490Y1345010D03*
X-2442490D03*
X-2479990Y1420010D03*
X-2517490Y1495010D03*
X-2442490D03*
X-2479990Y1570010D03*
X-2517490Y1645010D03*
X-2442490D03*
X-2479990Y1720010D03*
X-2517490Y1795010D03*
X-2442490D03*
X-2479990Y1870010D03*
X-2517490Y1945010D03*
X-2142490D03*
X-2067490D03*
X-2479990Y2020010D03*
X-2179990D03*
X-2104990D03*
X-2029990D03*
X-2517490Y2095010D03*
X-2292490D03*
X-2217490D03*
X-2142490D03*
X-2067490D03*
X-2479990Y2170010D03*
X-2254990D03*
X-2179990D03*
X-2104990D03*
X-2029990D03*
X-2517490Y2245010D03*
X-2292490D03*
X-2217490D03*
X-2142490D03*
X-2067490D03*
X-2254990Y2320010D03*
X-2179990D03*
X-2104990D03*
X-2029990D03*
X-2517490Y2395010D03*
X-2292490D03*
X-2217490D03*
X-2142490D03*
X-2067490D03*
X-2479990Y2470010D03*
X-2404990D03*
X-2329990D03*
X-2254990D03*
X-2179990D03*
X-2104990D03*
X-2029990D03*
X-2517490Y2545010D03*
X-2442490D03*
X-2367490D03*
X-2292490D03*
X-2217490D03*
X-2142490D03*
X-2067490D03*
X-2479990Y2620010D03*
X-2404990D03*
X-2329990D03*
X-2254990D03*
X-2179990D03*
X-2104990D03*
X-2029990D03*
X-2517490Y2695010D03*
X-2442490D03*
X-2367490D03*
X-2292490D03*
X-2217490D03*
X-2142490D03*
X-2067490D03*
X-2479990Y2770010D03*
X-2404990D03*
X-2329990D03*
X-2254990D03*
X-2179990D03*
X-2104990D03*
X-2029990D03*
X-2517490Y2845010D03*
X-2442490D03*
X-2367490D03*
X-2292490D03*
X-2217490D03*
X-2142490D03*
X-2067490D03*
X-2479990Y2920010D03*
X-2404990D03*
X-2329990D03*
X-2254990D03*
X-2179990D03*
X-2104990D03*
X-2029990D03*
X-1949300Y-2629990D03*
X-1986800Y-2554990D03*
X-1911800D03*
X-1836800D03*
X-1949300Y-2479990D03*
X-1874300D03*
X-1986800Y-2404990D03*
X-1911800D03*
X-1836800D03*
X-1949300Y-2329990D03*
X-1874300D03*
X-1986800Y-2254990D03*
X-1911800D03*
X-1836800D03*
X-1949300Y-2179990D03*
X-1874300D03*
X-1986800Y-2104990D03*
X-1911800D03*
X-1836800D03*
X-1949300Y-1429990D03*
X-1874300D03*
X-1986800Y-1354990D03*
X-1911800D03*
X-1836800D03*
X-1949300Y-1279990D03*
X-1874300D03*
X-1986800Y-1204990D03*
X-1911800D03*
X-1836800D03*
X-1949300Y-1129990D03*
X-1874300D03*
X-1986800Y-1054990D03*
X-1911800D03*
X-1836800D03*
X-1949300Y-979990D03*
X-1874300D03*
X-1507200Y-507440D03*
X-1469700Y-432440D03*
X-1986800Y-904990D03*
X-1911800D03*
X-1949300Y-829990D03*
X-1986800Y-754990D03*
Y-604990D03*
X-1949300Y-529990D03*
X-1986800Y-454990D03*
X-1949300Y-379990D03*
X-1874300D03*
X-1986800Y-304990D03*
X-1911800D03*
X-1836800D03*
X-1949300Y-229990D03*
X-1874300D03*
X-1799300D03*
X-1724300D03*
X-1986800Y-154990D03*
X-1911800D03*
X-1836800D03*
X-1761800D03*
X-1686800D03*
X-1949300Y-79990D03*
X-1874300D03*
X-1799300D03*
X-1724300D03*
X-1649300D03*
X-1574300D03*
X-1499300D03*
X-1986800Y-4990D03*
X-1911800D03*
X-1836800D03*
X-1761800D03*
X-1686800D03*
X-1611800D03*
X-1536800D03*
X-1461800D03*
X-1949300Y70010D03*
X-1874300D03*
X-1799300D03*
X-1724300D03*
X-1649300D03*
X-1574300D03*
X-1499300D03*
X-1986800Y145010D03*
X-1911800D03*
X-1836800D03*
X-1761800D03*
X-1686800D03*
X-1611800D03*
X-1536800D03*
X-1461800D03*
X-1949300Y220010D03*
X-1874300D03*
X-1799300D03*
X-1724300D03*
X-1649300D03*
X-1574300D03*
X-1499300D03*
X-1986800Y295010D03*
X-1911800D03*
X-1836800D03*
X-1761800D03*
X-1686800D03*
X-1611800D03*
X-1536800D03*
X-1461800D03*
X-1949300Y370010D03*
X-1874300D03*
X-1799300D03*
X-1724300D03*
X-1649300D03*
X-1574300D03*
X-1499300D03*
X-1986800Y445010D03*
X-1911800D03*
X-1836800D03*
X-1761800D03*
X-1686800D03*
X-1611800D03*
X-1536800D03*
X-1461800D03*
X-1949300Y520010D03*
X-1874300D03*
X-1799300D03*
X-1724300D03*
X-1649300D03*
X-1574300D03*
X-1499300D03*
X-1986800Y595010D03*
X-1911800D03*
X-1836800D03*
X-1761800D03*
X-1686800D03*
X-1611800D03*
X-1536800D03*
X-1461800D03*
X-1874300Y670010D03*
X-1799300D03*
X-1724300D03*
X-1649300D03*
X-1574300D03*
X-1499300D03*
X-1836800Y745010D03*
X-1761800D03*
X-1686800D03*
X-1611800D03*
X-1536800D03*
X-1461800D03*
X-1799300Y820010D03*
X-1724300D03*
X-1649300D03*
X-1836800Y895010D03*
X-1761800D03*
X-1686800D03*
X-1949300Y970010D03*
X-1874300D03*
X-1799300D03*
X-1724300D03*
X-1649300D03*
X-1986800Y1045010D03*
X-1911800D03*
X-1836800D03*
X-1761800D03*
X-1686800D03*
X-1949300Y1120010D03*
X-1874300D03*
X-1799300D03*
X-1724300D03*
X-1649300D03*
X-1911800Y1195010D03*
X-1836800D03*
X-1761800D03*
X-1686800D03*
X-1980780Y1591830D03*
X-1799300Y1270010D03*
X-1724300D03*
X-1649300D03*
X-1761800Y1345010D03*
X-1686800D03*
X-1649300Y1420010D03*
X-1686800Y1495010D03*
X-1649300Y1570010D03*
X-1692490Y1795010D03*
X-1992490Y1945010D03*
X-1917490D03*
X-1692490D03*
X-1954990Y2020010D03*
X-1654990D03*
X-1992490Y2095010D03*
X-1917490D03*
X-1692490D03*
X-1617490D03*
X-1954990Y2170010D03*
X-1654990D03*
X-1992490Y2245010D03*
X-1917490D03*
X-1692490D03*
X-1617490D03*
X-1954990Y2320010D03*
X-1654990D03*
X-1992490Y2395010D03*
X-1917490D03*
X-1692490D03*
X-1617490D03*
X-1954990Y2470010D03*
X-1992490Y2545010D03*
X-1917490D03*
X-1692490D03*
X-1467490D03*
X-1954990Y2620010D03*
X-1654990D03*
X-1579990D03*
X-1504990D03*
X-1992490Y2695010D03*
X-1917490D03*
X-1692490D03*
X-1617490D03*
X-1542490D03*
X-1467490D03*
X-1954990Y2770010D03*
X-1879990D03*
X-1729990D03*
X-1654990D03*
X-1579990D03*
X-1504990D03*
X-1992490Y2845010D03*
X-1917490D03*
X-1842490D03*
X-1767490D03*
X-1692490D03*
X-1617490D03*
X-1542490D03*
X-1467490D03*
X-1954990Y2920010D03*
X-1879990D03*
X-1804990D03*
X-1729990D03*
X-1654990D03*
X-1579990D03*
X-1504990D03*
X-1124300Y-2929990D03*
X-1049300D03*
X-974300D03*
X-936800Y-2854990D03*
X-974300Y-2779990D03*
X-1011800Y-2704990D03*
X-936800D03*
X-974300Y-2629990D03*
X-1011800Y-2554990D03*
X-936800D03*
X-1341670Y-2779990D03*
Y-2629990D03*
X-974300Y-2479990D03*
X-1011800Y-2404990D03*
X-936800D03*
X-974300Y-2329990D03*
X-1011800Y-2254990D03*
X-936800D03*
X-974300Y-2179990D03*
X-1011800Y-2104990D03*
X-936800D03*
X-974300Y-2029990D03*
X-1341670Y-2479990D03*
Y-2329990D03*
Y-2179990D03*
Y-2029990D03*
X-1011800Y-1954990D03*
X-936800D03*
X-974300Y-1879990D03*
X-1011800Y-1804990D03*
X-936800D03*
X-974300Y-1729990D03*
X-1011800Y-1654990D03*
X-936800D03*
X-974300Y-1579990D03*
X-1011800Y-1504990D03*
X-936800D03*
X-1341670Y-1879990D03*
Y-1729990D03*
Y-1579990D03*
X-974300Y-1429990D03*
X-1011800Y-1354990D03*
X-936800D03*
X-974300Y-1279990D03*
X-1011800Y-1204990D03*
X-936800D03*
X-1341670Y-1429990D03*
Y-1279990D03*
Y-1129990D03*
X-1432200Y-507440D03*
X-1357200D03*
X-1394700Y-432440D03*
X-1004980Y-906490D03*
X-967480Y-831490D03*
X-1004980Y-756490D03*
X-929980D03*
X-1042480Y-681490D03*
X-967480D03*
X-1004980Y-606490D03*
X-929980D03*
X-1042480Y-531490D03*
X-967480D03*
X-1004980Y-456490D03*
X-929980D03*
X-1357200Y-357440D03*
X-1117480Y-381490D03*
X-1042480D03*
X-967480D03*
X-1424300Y-79990D03*
X-1349300D03*
X-1274300D03*
X-1199300D03*
X-1124300D03*
X-1049300D03*
X-974300D03*
X-1386800Y-4990D03*
X-1161800D03*
X-1086800D03*
X-1011800D03*
X-936800D03*
X-1424300Y70010D03*
X-1124300D03*
X-1049300D03*
X-974300D03*
X-939150Y616070D03*
X-1386800Y145010D03*
X-1161800D03*
X-1086800D03*
X-1011800D03*
X-936800D03*
X-1424300Y220010D03*
X-1124300D03*
X-1049300D03*
X-974300D03*
X-1386800Y295010D03*
X-1086800D03*
X-1011800D03*
X-936800D03*
X-1424300Y370010D03*
X-1049300D03*
X-1386800Y445010D03*
X-1086800D03*
X-1424300Y520010D03*
X-1386800Y595010D03*
X-1424300Y670010D03*
X-1311250Y991770D03*
Y1141770D03*
X-976650Y691070D03*
X-1014150Y766070D03*
X-939150D03*
X-976650Y841070D03*
X-1014150Y916070D03*
X-939150D03*
X-976650Y991070D03*
X-939150Y1066070D03*
X-976650Y1141070D03*
X-1261400Y1706330D03*
X-1311250Y1291770D03*
Y1441770D03*
X-1014150Y1216070D03*
X-939150D03*
X-976650Y1291070D03*
X-1014150Y1366070D03*
X-939150D03*
X-976650Y1441070D03*
X-1373900Y1781330D03*
X-1298900D03*
X-1223900D03*
X-1336400Y1856330D03*
X-1261400D03*
X-1186400D03*
X-1279990Y2170010D03*
X-1204990D03*
X-1317490Y2245010D03*
X-1242490D03*
X-996610Y2350410D03*
X-959110Y2425410D03*
X-996610Y2500410D03*
X-959110Y2575410D03*
X-996610Y2650410D03*
X-1354990Y2320010D03*
X-1279990D03*
X-1204990D03*
X-1392490Y2395010D03*
X-1317490D03*
X-1242490D03*
X-1429990Y2470010D03*
X-1354990D03*
X-1279990D03*
X-1204990D03*
X-1392490Y2545010D03*
X-1317490D03*
X-1242490D03*
X-1429990Y2620010D03*
X-1354990D03*
X-1279990D03*
X-1392490Y2695010D03*
X-1317490D03*
X-1429990Y2770010D03*
X-1354990D03*
X-1279990D03*
X-1204990D03*
X-1392490Y2845010D03*
X-1317490D03*
X-1242490D03*
X-1167490D03*
X-1092490D03*
X-1017490D03*
X-942490D03*
X-1429990Y2920010D03*
X-1354990D03*
X-1279990D03*
X-1204990D03*
X-1129990D03*
X-1054990D03*
X-979990D03*
X-899300Y-2929990D03*
X-824300D03*
X-749300D03*
X-674300D03*
X-599300D03*
X-524300D03*
X-449300D03*
X-861800Y-2854990D03*
X-786800D03*
X-711800D03*
X-636800D03*
X-561800D03*
X-486800D03*
X-411800D03*
X-899300Y-2779990D03*
X-824300D03*
X-749300D03*
X-674300D03*
X-599300D03*
X-524300D03*
X-449300D03*
X-861800Y-2704990D03*
X-786800D03*
X-711800D03*
X-636800D03*
X-561800D03*
X-486800D03*
X-411800D03*
X-899300Y-2629990D03*
X-824300D03*
X-749300D03*
X-674300D03*
X-599300D03*
X-524300D03*
X-449300D03*
X-861800Y-2554990D03*
X-786800D03*
X-711800D03*
X-636800D03*
X-561800D03*
X-486800D03*
X-411800D03*
X-899300Y-2479990D03*
X-824300D03*
X-749300D03*
X-449300D03*
X-861800Y-2404990D03*
X-899300Y-2329990D03*
X-824300D03*
X-861800Y-2254990D03*
X-899300Y-2179990D03*
X-824300D03*
X-861800Y-2104990D03*
X-786800D03*
X-711800D03*
X-636800D03*
X-561800D03*
X-486800D03*
X-411800D03*
X-899300Y-2029990D03*
X-824300D03*
X-749300D03*
X-674300D03*
X-599300D03*
X-524300D03*
X-449300D03*
X-861800Y-1954990D03*
X-786800D03*
X-711800D03*
X-636800D03*
X-561800D03*
X-486800D03*
X-411800D03*
X-899300Y-1879990D03*
X-824300D03*
X-749300D03*
X-674300D03*
X-599300D03*
X-524300D03*
X-449300D03*
X-861800Y-1804990D03*
X-786800D03*
X-711800D03*
X-636800D03*
X-561800D03*
X-486800D03*
X-411800D03*
X-899300Y-1729990D03*
X-824300D03*
X-749300D03*
X-674300D03*
X-599300D03*
X-524300D03*
X-449300D03*
X-861800Y-1654990D03*
X-786800D03*
X-711800D03*
X-636800D03*
X-561800D03*
X-486800D03*
X-411800D03*
X-899300Y-1579990D03*
X-824300D03*
X-749300D03*
X-674300D03*
X-599300D03*
X-524300D03*
X-449300D03*
X-861800Y-1504990D03*
X-786800D03*
X-711800D03*
X-636800D03*
X-561800D03*
X-486800D03*
X-411800D03*
X-899300Y-1429990D03*
X-824300D03*
X-749300D03*
X-674300D03*
X-599300D03*
X-524300D03*
X-449300D03*
X-861800Y-1354990D03*
X-786800D03*
X-711800D03*
X-636800D03*
X-561800D03*
X-486800D03*
X-411800D03*
X-899300Y-1279990D03*
X-824300D03*
X-749300D03*
X-674300D03*
X-599300D03*
X-524300D03*
X-449300D03*
X-861800Y-1204990D03*
X-786800D03*
X-711800D03*
X-636800D03*
X-561800D03*
X-486800D03*
X-411800D03*
X-899300Y-1129990D03*
X-824300D03*
X-749300D03*
X-674300D03*
X-599300D03*
X-524300D03*
X-449300D03*
X-861800Y-1054990D03*
X-786800D03*
X-711800D03*
X-636800D03*
X-561800D03*
X-486800D03*
X-411800D03*
X-749300Y-979990D03*
X-674300D03*
X-599300D03*
X-524300D03*
X-449300D03*
X-854980Y-756490D03*
X-892480Y-681490D03*
X-817480D03*
X-854980Y-606490D03*
X-892480Y-531490D03*
X-817480D03*
X-854980Y-456490D03*
X-711800Y-904990D03*
X-636800D03*
X-561800D03*
X-599300Y-829990D03*
X-392480Y-361780D03*
Y-211780D03*
Y-61780D03*
Y88220D03*
X-892480Y-381490D03*
X-636800Y-304990D03*
X-899300Y-79990D03*
X-824300D03*
X-749300D03*
X-861800Y-4990D03*
X-786800D03*
X-711800D03*
X-899300Y70010D03*
X-824300D03*
X-749300D03*
X-639150Y316070D03*
X-751650Y391070D03*
X-789150Y466070D03*
X-714150D03*
X-901650Y541070D03*
X-826650D03*
X-751650D03*
X-864150Y616070D03*
X-789150D03*
X-714150D03*
X-392480Y238220D03*
Y388220D03*
Y538220D03*
X-861800Y145010D03*
X-786800D03*
X-899300Y220010D03*
X-901650Y691070D03*
X-826650D03*
X-751650D03*
X-864150Y766070D03*
X-789150D03*
X-714150D03*
X-901650Y841070D03*
X-826650D03*
X-751650D03*
X-864150Y916070D03*
X-789150D03*
X-714150D03*
X-901650Y991070D03*
X-826650D03*
X-751650D03*
X-864150Y1066070D03*
X-901650Y1141070D03*
X-392480Y688220D03*
Y838220D03*
Y988220D03*
X-434110Y1375410D03*
X-396610Y1450410D03*
Y1600410D03*
X-509110Y1675410D03*
X-434110D03*
X-864150Y1216070D03*
X-901650Y1291070D03*
X-864150Y1366070D03*
X-901650Y1441070D03*
X-546610Y1750410D03*
X-471610D03*
X-396610D03*
X-584110Y1825410D03*
X-509110D03*
X-434110D03*
X-696610Y1900410D03*
X-621610D03*
X-546610D03*
X-471610D03*
X-396610D03*
X-734110Y1975410D03*
X-659110D03*
X-584110D03*
X-509110D03*
X-434110D03*
X-771610Y2050410D03*
X-696610D03*
X-621610D03*
X-546610D03*
X-471610D03*
X-396610D03*
X-734110Y2125410D03*
X-659110D03*
X-584110D03*
X-509110D03*
X-434110D03*
X-771610Y2200410D03*
X-696610D03*
X-621610D03*
X-546610D03*
X-809110Y2275410D03*
X-734110D03*
X-659110D03*
X-584110D03*
X-509110D03*
X-921610Y2350410D03*
X-846610D03*
X-771610D03*
X-696610D03*
X-621610D03*
X-546610D03*
X-884110Y2425410D03*
X-809110D03*
X-734110D03*
X-659110D03*
X-584110D03*
X-509110D03*
X-921610Y2500410D03*
X-846610D03*
X-771610D03*
X-696610D03*
X-621610D03*
X-546610D03*
X-884110Y2575410D03*
X-809110D03*
X-734110D03*
X-659110D03*
X-584110D03*
X-509110D03*
X-921610Y2650410D03*
X-846610D03*
X-771610D03*
X-696610D03*
X-621610D03*
X-546610D03*
X-867490Y2845010D03*
X-792490D03*
X-717490D03*
X-642490D03*
X-567490D03*
X-492490D03*
X-417490D03*
X-904990Y2920010D03*
X-829990D03*
X-754990D03*
X-679990D03*
X-604990D03*
X-529990D03*
X-454990D03*
X-374300Y-2929990D03*
X-299300D03*
X-224300D03*
X-149300D03*
X-336800Y-2854990D03*
X-261800D03*
X-374300Y-2779990D03*
X-299300D03*
X-224300D03*
X-336800Y-2704990D03*
X-261800D03*
X-374300Y-2629990D03*
X-299300D03*
X-224300D03*
X-336800Y-2554990D03*
X-261800D03*
X-186800D03*
X-111800D03*
X113200D03*
X-374300Y-2479990D03*
X-299300D03*
X-224300D03*
X-336800Y-2404990D03*
X-261800D03*
X-374300Y-2329990D03*
X-299300D03*
X-90180Y-1851600D03*
X-374300Y-1279990D03*
X-336800Y-1204990D03*
X-261800D03*
X-186800D03*
X-374300Y-1129990D03*
X-299300D03*
X-224300D03*
X-149300D03*
X-336800Y-1054990D03*
X-261800D03*
X-186800D03*
X-111800D03*
X-374300Y-979990D03*
X-299300D03*
X-224300D03*
X-149300D03*
X-8850Y-529800D03*
X66150D03*
X141150D03*
X28650Y-454800D03*
X103650D03*
X-336800Y-904990D03*
X-261800D03*
X-186800D03*
X-299300Y-829990D03*
X-224300D03*
X-149300D03*
X-186800Y-754990D03*
X-111800D03*
X-36800D03*
X-132280Y-348380D03*
X-169780Y-273380D03*
X-94780D03*
X-132280Y-198380D03*
X-57280D03*
X17720D03*
X-169780Y-123380D03*
X-94780D03*
X-19780D03*
X-132280Y-48380D03*
X-57280D03*
X17720D03*
X-169780Y26620D03*
X-94780D03*
X-19780D03*
X-132280Y101620D03*
X-57280D03*
X17720D03*
X141150Y-379800D03*
X-169780Y176620D03*
X-94780D03*
X-19780D03*
X-132280Y251620D03*
X-57280D03*
X17720D03*
X-169780Y326620D03*
X-94780D03*
X-19780D03*
X-132280Y401620D03*
X-57280D03*
X17720D03*
X-19780Y476620D03*
X17720Y551620D03*
X-19780Y626620D03*
X17720Y701620D03*
X107510Y1345010D03*
X70010Y1420010D03*
X107510Y1495010D03*
X70010Y1570010D03*
X107510Y1645010D03*
X70010Y1720010D03*
X-359110Y2125410D03*
X107510Y1795010D03*
X70010Y1870010D03*
X107510Y1945010D03*
Y2095010D03*
X70010Y2170010D03*
X107510Y2245010D03*
X-284110Y2425410D03*
Y2575410D03*
X70010Y2320010D03*
X-79990Y2770010D03*
X-4990D03*
X70010D03*
X-342490Y2845010D03*
X-267490D03*
X-192490D03*
X-117490D03*
X-42490D03*
X32510D03*
X107510D03*
X-379990Y2920010D03*
X-304990D03*
X-229990D03*
X-154990D03*
X-79990D03*
X-4990D03*
X70010D03*
X150700Y-2929990D03*
X225700D03*
X300700D03*
X375700D03*
X450700D03*
X525700D03*
X600700D03*
X675700D03*
X188200Y-2854990D03*
X263200D03*
X338200D03*
X413200D03*
X488200D03*
X563200D03*
X638200D03*
X225700Y-2779990D03*
X300700D03*
X375700D03*
X450700D03*
X525700D03*
X600700D03*
X675700D03*
X263200Y-2704990D03*
X338200D03*
X413200D03*
X488200D03*
X563200D03*
X638200D03*
X225700Y-2629990D03*
X300700D03*
X375700D03*
X450700D03*
X525700D03*
X600700D03*
X675700D03*
X188200Y-2554990D03*
X263200D03*
X338200D03*
X413200D03*
X488200D03*
X563200D03*
X638200D03*
X284350Y-2022250D03*
X225700Y-2479990D03*
X300700D03*
X375700D03*
X450700D03*
X263200Y-2404990D03*
X338200D03*
X300700Y-2329990D03*
X375700D03*
X563200Y-2104990D03*
X638200D03*
X507520Y-1837480D03*
X582520D03*
X657520D03*
X545020Y-1762480D03*
X620020D03*
X507520Y-1687480D03*
X582520D03*
X657520D03*
X545020Y-1612480D03*
X507520Y-1537480D03*
X288740Y-1150740D03*
X251240Y-1075740D03*
X288740Y-1000740D03*
X251240Y-925740D03*
X213740Y-850740D03*
X251240Y-775740D03*
X238600Y370010D03*
X276100Y445010D03*
X238600Y520010D03*
X313600D03*
X388600D03*
X463600D03*
X538600D03*
X276100Y595010D03*
X351100D03*
X426100D03*
X501100D03*
X576100D03*
X313600Y670010D03*
X388600D03*
X463600D03*
X538600D03*
X276100Y1040350D03*
X238600Y1115350D03*
X313600D03*
X276100Y1190350D03*
X351100D03*
X426100D03*
X351100Y745010D03*
X426100D03*
X501100D03*
X576100D03*
X313600Y820010D03*
X388600D03*
X463600D03*
X538600D03*
X426100Y895010D03*
X501100D03*
X576100D03*
X463600Y970010D03*
X538600D03*
X576100Y1045010D03*
X651100D03*
X613600Y1120010D03*
X313600Y1265350D03*
X388600D03*
X463600D03*
X426100Y1340350D03*
X501100D03*
X463600Y1415350D03*
X538600D03*
X613600D03*
X576100Y1490350D03*
X613600Y1565350D03*
X145010Y1420010D03*
X182510Y1495010D03*
X257510D03*
X145010Y1570010D03*
X220010D03*
X295010D03*
X182510Y1645010D03*
X257510D03*
X145010Y1720010D03*
X220010D03*
X182510Y1795010D03*
X257510D03*
X482510D03*
X145010Y1870010D03*
X220010D03*
X295010D03*
X182510Y1945010D03*
X257510D03*
X482510D03*
X145010Y2020010D03*
X220010D03*
X295010D03*
X182510Y2095010D03*
X257510D03*
X482510D03*
X145010Y2170010D03*
X220010D03*
X295010D03*
X182510Y2245010D03*
X257510D03*
X482510D03*
X145010Y2320010D03*
X220010D03*
X482510Y2395010D03*
X520010Y2470010D03*
X595010D03*
X257510Y2545010D03*
X332510D03*
X407510D03*
X482510D03*
X557510D03*
X632510D03*
X595010Y2620010D03*
X670010D03*
X632510Y2695010D03*
X145010Y2770010D03*
X220010D03*
X295010D03*
X370010D03*
X445010D03*
X520010D03*
X595010D03*
X670010D03*
X182510Y2845010D03*
X257510D03*
X332510D03*
X407510D03*
X482510D03*
X557510D03*
X632510D03*
X145010Y2920010D03*
X220010D03*
X295010D03*
X370010D03*
X445010D03*
X520010D03*
X595010D03*
X670010D03*
X750700Y-2929990D03*
X825700D03*
X900700D03*
X975700D03*
X1050700D03*
X1125700D03*
X713200Y-2854990D03*
X788200D03*
X863200D03*
X938200D03*
X1013200D03*
X1088200D03*
X1163200D03*
X750700Y-2779990D03*
X825700D03*
X1050700D03*
X1125700D03*
X1200700D03*
X713200Y-2704990D03*
X788200D03*
X1088200D03*
X750700Y-2629990D03*
X825700D03*
X713200Y-2554990D03*
X788200D03*
X863200D03*
X938200D03*
X750700Y-2479990D03*
X825700D03*
X900700D03*
X975700D03*
X863200Y-2404990D03*
X938200D03*
X1013200D03*
X825700Y-2329990D03*
X900700D03*
X975700D03*
X863200Y-2254990D03*
X938200D03*
X1013200D03*
X825700Y-2179990D03*
X900700D03*
X975700D03*
X713200Y-2104990D03*
X788200D03*
X863200D03*
X938200D03*
X732520Y-1837480D03*
X807520D03*
X695020Y-1762480D03*
X835660Y-1177320D03*
Y-1027320D03*
Y-877320D03*
Y-727320D03*
Y-577320D03*
X873160Y-502320D03*
X948160D03*
X1023160D03*
X835660Y-427320D03*
X910660D03*
X985660D03*
X1060660D03*
X1128480Y-170240D03*
X1203480D03*
X1090980Y-95240D03*
X1165980D03*
X978480Y-20240D03*
X1053480D03*
X1128480D03*
X1203480D03*
X940980Y54760D03*
X1015980D03*
X1090980D03*
X1165980D03*
X903480Y129760D03*
X978480D03*
X1053480D03*
X1128480D03*
X1203480D03*
X835660Y-127320D03*
X801100Y595010D03*
Y745010D03*
Y895010D03*
X726100Y1045010D03*
X801100D03*
X688600Y1120010D03*
X763600D03*
X726100Y1195010D03*
X801100D03*
X763600Y1270010D03*
X876100Y1495010D03*
X838600Y1570010D03*
X913600D03*
X876100Y1645010D03*
X951100D03*
X838600Y1720010D03*
X913600D03*
X988600D03*
X876100Y1795010D03*
X951100D03*
X838600Y1870010D03*
X913600D03*
X988600D03*
X876100Y1945010D03*
X951100D03*
X1026100D03*
X1101100D03*
X838600Y2020010D03*
X913600D03*
X988600D03*
X1063600D03*
X1138600D03*
X876100Y2095010D03*
X951100D03*
X1026100D03*
X1101100D03*
X1176100D03*
X913600Y2170010D03*
X988600D03*
X1063600D03*
X1138600D03*
X726100Y2245010D03*
X1026100D03*
X1101100D03*
X1176100D03*
X763600Y2320010D03*
X1063600D03*
X1138600D03*
X801100Y2395010D03*
X876100D03*
X1176100D03*
X913600Y2470010D03*
X951100Y2545010D03*
X1026100D03*
X1063600Y2620010D03*
X1101100Y2695010D03*
X1176100D03*
X745010Y2620010D03*
X707510Y2695010D03*
X782510D03*
X745010Y2770010D03*
X820010D03*
X895010D03*
X707510Y2845010D03*
X782510D03*
X857510D03*
X932510D03*
X745010Y2920010D03*
X820010D03*
X895010D03*
X970010D03*
X1045010D03*
X1438600Y-2929990D03*
X1513600D03*
X1588600D03*
X1663600D03*
X1738600D03*
X1401100Y-2854990D03*
X1476100D03*
X1551100D03*
X1626100D03*
X1701100D03*
X1438600Y-2779990D03*
X1513600D03*
X1588600D03*
X1663600D03*
X1738600D03*
X1401100Y-2704990D03*
X1476100D03*
X1551100D03*
X1626100D03*
X1701100D03*
X1438600Y-2629990D03*
X1513600D03*
X1588600D03*
X1663600D03*
X1738600D03*
X1401100Y-2554990D03*
X1476100D03*
X1551100D03*
X1626100D03*
X1701100D03*
X1438600Y-2479990D03*
X1513600D03*
X1588600D03*
X1663600D03*
X1738600D03*
X1401100Y-2404990D03*
X1476100D03*
X1551100D03*
X1626100D03*
X1701100D03*
X1438600Y-2329990D03*
X1513600D03*
X1588600D03*
X1663600D03*
X1738600D03*
X1401100Y-2254990D03*
X1476100D03*
X1551100D03*
X1626100D03*
X1701100D03*
X1438600Y-2179990D03*
X1513600D03*
X1588600D03*
X1663600D03*
X1738600D03*
X1401100Y-2104990D03*
X1476100D03*
X1551100D03*
X1626100D03*
X1701100D03*
X1438600Y-2029990D03*
X1513600D03*
X1588600D03*
X1663600D03*
X1738600D03*
X1476100Y-1954990D03*
X1551100D03*
X1626100D03*
X1701100D03*
X1513600Y-1879990D03*
X1588600D03*
X1663600D03*
X1738600D03*
X1476100Y-1804990D03*
X1551100D03*
X1626100D03*
X1701100D03*
X1513600Y-1729990D03*
X1588600D03*
X1663600D03*
X1738600D03*
X1476100Y-1654990D03*
X1551100D03*
X1626100D03*
X1701100D03*
X1513600Y-1579990D03*
X1663600D03*
X1738600D03*
X1476100Y-1504990D03*
X1701100D03*
X1738600Y-1429990D03*
X1476100Y-1354990D03*
X1701100D03*
X1738600Y-1279990D03*
X1476100Y-1204990D03*
X1701100D03*
X1738600Y-1129990D03*
X1476100Y-1054990D03*
X1701100D03*
X1738600Y-979990D03*
X1476100Y-904990D03*
X1701100D03*
X1738600Y-829990D03*
X1701100Y-754990D03*
X1738600Y-679990D03*
X1701100Y-604990D03*
X1738600Y-529990D03*
X1701100Y-454990D03*
X1738600Y-379990D03*
X1701100Y-304990D03*
X1738600Y-229990D03*
X1701100Y-154990D03*
X1588600Y-79990D03*
X1663600D03*
X1738600D03*
X1551100Y-4990D03*
X1626100D03*
X1701100D03*
X1588600Y70010D03*
X1663600D03*
X1732520Y316350D03*
X1620020Y391350D03*
X1695020D03*
X1582520Y466350D03*
X1657520D03*
X1470020Y541350D03*
X1545020D03*
X1620020D03*
X1432520Y616350D03*
X1507520D03*
X1551100Y145010D03*
X1438600Y220010D03*
X1513600D03*
X1401100Y295010D03*
X1213600Y370010D03*
X1288600D03*
X1363600D03*
X1251100Y445010D03*
X1213600Y520010D03*
Y670010D03*
Y820010D03*
X1251100Y895010D03*
X1326100D03*
X1213600Y970010D03*
X1476100Y1045010D03*
X1701100D03*
X1513600Y1120010D03*
X1738600D03*
X1476100Y1195010D03*
X1701100D03*
X1513600Y1270010D03*
X1738600D03*
X1476100Y1345010D03*
X1701100D03*
X1513600Y1420010D03*
X1738600D03*
X1476100Y1495010D03*
X1701100D03*
X1213600Y1570010D03*
X1513600D03*
X1738600D03*
X1251100Y1645010D03*
X1476100D03*
X1701100D03*
X1213600Y1720010D03*
X1288600D03*
X1363600D03*
X1438600D03*
X1513600D03*
X1738600D03*
X1251100Y1795010D03*
X1326100D03*
X1401100D03*
X1476100D03*
X1701100D03*
X1288600Y1870010D03*
X1363600D03*
X1438600D03*
X1513600D03*
X1738600D03*
X1401100Y1945010D03*
X1438600Y2020010D03*
X1251100Y2095010D03*
X1213600Y2170010D03*
X1288600D03*
X1588600D03*
X1251100Y2245010D03*
X1326100D03*
X1401100D03*
X1701100D03*
X1213600Y2320010D03*
X1288600D03*
X1363600D03*
X1438600D03*
X1738600D03*
X1251100Y2395010D03*
X1326100D03*
X1401100D03*
X1476100D03*
X1551100D03*
X1701100D03*
X1213600Y2470010D03*
X1288600D03*
X1363600D03*
X1438600D03*
X1513600D03*
X1588600D03*
X1663600D03*
X1738600D03*
X1326100Y2545010D03*
X1401100D03*
X1476100D03*
X1551100D03*
X1626100D03*
X1701100D03*
X1738600Y2620010D03*
X1213600Y2770010D03*
X1738600D03*
X1251100Y2845010D03*
X1326100D03*
X1401100D03*
X1476100D03*
X1551100D03*
X1626100D03*
X1701100D03*
X1813600Y-2929990D03*
X1888600D03*
X1963600D03*
X2038600D03*
X2113600D03*
X2188600D03*
X2263600D03*
X1776100Y-2854990D03*
X1851100D03*
X1926100D03*
X2001100D03*
X2076100D03*
X2151100D03*
X2226100D03*
X1813600Y-2779990D03*
X1888600D03*
X1963600D03*
X2038600D03*
X2113600D03*
X2188600D03*
X2263600D03*
X1776100Y-2704990D03*
X1851100D03*
X1926100D03*
X2001100D03*
X2076100D03*
X2151100D03*
X2226100D03*
X1813600Y-2629990D03*
X1888600D03*
X1963600D03*
X2038600D03*
X2113600D03*
X2188600D03*
X2263600D03*
X1776100Y-2554990D03*
X1851100D03*
X1926100D03*
X2001100D03*
X2076100D03*
X2151100D03*
X2226100D03*
X1813600Y-2479990D03*
X1888600D03*
X1963600D03*
X2038600D03*
X2113600D03*
X2188600D03*
X2263600D03*
X1776100Y-2404990D03*
X1851100D03*
X1926100D03*
X2001100D03*
X2076100D03*
X2151100D03*
X2226100D03*
X1813600Y-2329990D03*
X1888600D03*
X1963600D03*
X2038600D03*
X2113600D03*
X2188600D03*
X2263600D03*
X1776100Y-2254990D03*
X1851100D03*
X1926100D03*
X2001100D03*
X2076100D03*
X2151100D03*
X2226100D03*
X1813600Y-2179990D03*
X1888600D03*
X1963600D03*
X2038600D03*
X2113600D03*
X2188600D03*
X2263600D03*
X1776100Y-2104990D03*
X1851100D03*
X2076100D03*
X2151100D03*
X1813600Y-2029990D03*
X2038600D03*
X2113600D03*
X1776100Y-1954990D03*
X1851100D03*
X2076100D03*
X2151100D03*
X1813600Y-1879990D03*
X2038600D03*
X2113600D03*
X1776100Y-1804990D03*
X1851100D03*
X2076100D03*
X1813600Y-1729990D03*
X2038600D03*
X2113600D03*
X1776100Y-1654990D03*
X1851100D03*
X2076100D03*
X1813600Y-1579990D03*
X2038600D03*
X2113600D03*
X1776100Y-1504990D03*
X1851100D03*
X2076100D03*
X1813600Y-1429990D03*
X2038600D03*
X2113600D03*
X1776100Y-1354990D03*
X1851100D03*
X2076100D03*
X1813600Y-1279990D03*
X2038600D03*
X2113600D03*
X1776100Y-1204990D03*
X1851100D03*
X2076100D03*
X1813600Y-1129990D03*
X2038600D03*
X2113600D03*
X1776100Y-1054990D03*
X2076100D03*
X2038600Y-979990D03*
X2113600D03*
X1776100Y-904990D03*
X2076100D03*
X2038600Y-829990D03*
X2113600D03*
X1776100Y-754990D03*
X2076100D03*
X2038600Y-679990D03*
X2113600D03*
X1776100Y-604990D03*
X2076100D03*
X2038600Y-529990D03*
X2113600D03*
X1776100Y-454990D03*
X2076100D03*
X2038600Y-379990D03*
X2113600D03*
X1776100Y-304990D03*
X2076100D03*
X2038600Y-229990D03*
X2113600D03*
X1776100Y-154990D03*
X2076100D03*
X2038600Y-79990D03*
X2113600D03*
X2076100Y-4990D03*
X2038600Y70010D03*
X2113600D03*
X1770020Y241350D03*
X1845020D03*
X1807520Y316350D03*
X1770020Y391350D03*
X2076100Y145010D03*
X2038600Y220010D03*
X2113600D03*
X2076100Y295010D03*
X2038600Y370010D03*
X2113600D03*
X2001100Y445010D03*
X2076100D03*
X1963600Y520010D03*
X2038600D03*
X2113600D03*
X1851100Y595010D03*
X1926100D03*
X2001100D03*
X2076100D03*
X1963600Y670010D03*
X2038600D03*
X2113600D03*
Y970010D03*
X1776100Y1045010D03*
X1851100D03*
X1926100D03*
X2001100D03*
X2076100D03*
X1813600Y1120010D03*
X1888600D03*
X1963600D03*
X2038600D03*
X2113600D03*
X1776100Y1195010D03*
X1851100D03*
X1926100D03*
X2001100D03*
X2076100D03*
X1813600Y1270010D03*
X1888600D03*
X1963600D03*
X2038600D03*
X2113600D03*
X1776100Y1345010D03*
X1851100D03*
X1926100D03*
X2001100D03*
X2076100D03*
X1813600Y1420010D03*
X1888600D03*
X1963600D03*
X2038600D03*
X2113600D03*
X1776100Y1495010D03*
X1851100D03*
X1926100D03*
X2001100D03*
X2076100D03*
X1813600Y1570010D03*
X1888600D03*
X1963600D03*
X2038600D03*
X2113600D03*
X1776100Y1645010D03*
X1851100D03*
X1926100D03*
X2001100D03*
X2076100D03*
X1813600Y1720010D03*
X1888600D03*
X1963600D03*
X2038600D03*
X2113600D03*
X1776100Y1795010D03*
X1851100D03*
X1926100D03*
X2001100D03*
X1813600Y1870010D03*
X1888600D03*
X1776100Y1945010D03*
X1851100D03*
X1926100D03*
X1813600Y2020010D03*
X1888600D03*
X1963600D03*
X1851100Y2095010D03*
X1926100D03*
X2001100D03*
X2076100D03*
X1888600Y2170010D03*
X1963600D03*
X2038600D03*
X2113600D03*
X2188600D03*
X2263600D03*
X2001100Y2245010D03*
X2076100D03*
X2151100D03*
X2038600Y2320010D03*
X2113600D03*
X1776100Y2395010D03*
X1851100D03*
X2076100D03*
X2151100D03*
X1813600Y2470010D03*
X2038600D03*
X2113600D03*
X2188600D03*
X2263600D03*
X1776100Y2545010D03*
X1851100D03*
X2076100D03*
X2151100D03*
X2226100D03*
X1813600Y2620010D03*
X2038600D03*
X2113600D03*
X2188600D03*
X2263600D03*
X1776100Y2695010D03*
X2076100D03*
X2151100D03*
X2226100D03*
X1813600Y2770010D03*
X1888600D03*
X2038600D03*
X2113600D03*
X2188600D03*
X2263600D03*
X1776100Y2845010D03*
X1851100D03*
X1926100D03*
X2001100D03*
X2076100D03*
X2151100D03*
X2226100D03*
X2338600Y-2929990D03*
X2413600D03*
X2488600D03*
X2563600D03*
X2638600D03*
X2713600D03*
X2788600D03*
X2301100Y-2854990D03*
X2376100D03*
X2451100D03*
X2526100D03*
X2601100D03*
X2676100D03*
X2751100D03*
X2338600Y-2779990D03*
X2413600D03*
X2488600D03*
X2563600D03*
X2638600D03*
X2713600D03*
X2788600D03*
X2301100Y-2704990D03*
X2376100D03*
X2451100D03*
X2526100D03*
X2601100D03*
X2676100D03*
X2751100D03*
X2338600Y-2629990D03*
X2413600D03*
X2488600D03*
X2563600D03*
X2638600D03*
X2713600D03*
X2788600D03*
X2301100Y-2554990D03*
X2376100D03*
X2451100D03*
X2526100D03*
X2601100D03*
X2676100D03*
X2751100D03*
X2338600Y-2479990D03*
X2413600D03*
X2488600D03*
X2563600D03*
X2638600D03*
X2713600D03*
X2788600D03*
X2301100Y-2404990D03*
X2376100D03*
X2451100D03*
X2526100D03*
X2601100D03*
X2676100D03*
X2751100D03*
X2338600Y-2329990D03*
X2413600D03*
X2488600D03*
X2563600D03*
X2638600D03*
X2713600D03*
X2788600D03*
X2301100Y-2254990D03*
X2376100D03*
X2451100D03*
X2526100D03*
X2601100D03*
X2676100D03*
X2751100D03*
X2338600Y-2179990D03*
X2413600D03*
X2488600D03*
X2563600D03*
X2638600D03*
X2713600D03*
X2788600D03*
X2676100Y-2104990D03*
X2751100D03*
X2713600Y-2029990D03*
X2788600D03*
X2676100Y-1954990D03*
X2751100D03*
X2488600Y-1879990D03*
X2563600D03*
X2638600D03*
X2713600D03*
X2788600D03*
X2451100Y-1804990D03*
X2526100D03*
X2601100D03*
X2676100D03*
X2751100D03*
X2488600Y-1729990D03*
X2563600D03*
X2638600D03*
X2713600D03*
X2788600D03*
X2451100Y-1654990D03*
X2526100D03*
X2601100D03*
X2676100D03*
X2751100D03*
X2488600Y-1579990D03*
X2563600D03*
X2638600D03*
X2713600D03*
X2788600D03*
X2451100Y-1504990D03*
X2526100D03*
X2601100D03*
X2676100D03*
X2751100D03*
X2488600Y-1429990D03*
X2563600D03*
X2638600D03*
X2713600D03*
X2788600D03*
X2451100Y-1354990D03*
X2526100D03*
X2601100D03*
X2676100D03*
X2751100D03*
X2488600Y-1279990D03*
X2563600D03*
X2638600D03*
X2713600D03*
X2788600D03*
X2451100Y-1204990D03*
X2526100D03*
X2601100D03*
X2676100D03*
X2751100D03*
X2488600Y-1129990D03*
X2563600D03*
X2638600D03*
X2713600D03*
X2788600D03*
X2451100Y-1054990D03*
X2526100D03*
X2601100D03*
X2676100D03*
X2751100D03*
X2488600Y-979990D03*
X2563600D03*
X2638600D03*
X2713600D03*
X2788600D03*
X2451100Y-904990D03*
X2526100D03*
X2601100D03*
X2676100D03*
X2751100D03*
X2488600Y-829990D03*
X2563600D03*
X2638600D03*
X2713600D03*
X2788600D03*
X2451100Y-754990D03*
X2526100D03*
X2601100D03*
X2676100D03*
X2751100D03*
X2488600Y-679990D03*
X2563600D03*
X2638600D03*
X2713600D03*
X2788600D03*
X2451100Y-604990D03*
X2526100D03*
X2601100D03*
X2676100D03*
X2751100D03*
X2488600Y-529990D03*
X2563600D03*
X2638600D03*
X2713600D03*
X2788600D03*
X2451100Y-454990D03*
X2526100D03*
X2601100D03*
X2676100D03*
X2751100D03*
X2488600Y-379990D03*
X2563600D03*
X2638600D03*
X2713600D03*
X2788600D03*
X2451100Y-304990D03*
X2526100D03*
X2601100D03*
X2676100D03*
X2751100D03*
X2488600Y-229990D03*
X2713600D03*
X2788600D03*
X2751100Y-154990D03*
X2788600Y-79990D03*
X2451100Y-4990D03*
X2751100D03*
X2488600Y70010D03*
X2563600D03*
X2638600D03*
X2713600D03*
X2788600D03*
X2451100Y145010D03*
X2526100D03*
X2601100D03*
X2676100D03*
X2751100D03*
X2488600Y220010D03*
X2563600D03*
X2638600D03*
X2713600D03*
X2788600D03*
X2451100Y295010D03*
X2526100D03*
X2601100D03*
X2676100D03*
X2751100D03*
X2488600Y370010D03*
X2563600D03*
X2638600D03*
X2713600D03*
X2788600D03*
X2451100Y445010D03*
X2526100D03*
X2601100D03*
X2676100D03*
X2751100D03*
X2488600Y520010D03*
X2563600D03*
X2638600D03*
X2713600D03*
X2788600D03*
X2451100Y595010D03*
X2526100D03*
X2601100D03*
X2676100D03*
X2751100D03*
X2488600Y670010D03*
X2563600D03*
X2638600D03*
X2713600D03*
X2788600D03*
X2451100Y745010D03*
X2526100D03*
X2601100D03*
X2676100D03*
X2751100D03*
X2488600Y820010D03*
X2563600D03*
X2638600D03*
X2713600D03*
X2788600D03*
X2451100Y895010D03*
X2526100D03*
X2601100D03*
X2676100D03*
X2751100D03*
X2488600Y970010D03*
X2563600D03*
X2638600D03*
X2713600D03*
X2788600D03*
X2451100Y1045010D03*
X2526100D03*
X2601100D03*
X2676100D03*
X2751100D03*
X2488600Y1120010D03*
X2563600D03*
X2638600D03*
X2713600D03*
X2788600D03*
X2451100Y1195010D03*
X2526100D03*
X2601100D03*
X2676100D03*
X2751100D03*
X2488600Y1270010D03*
X2563600D03*
X2638600D03*
X2713600D03*
X2788600D03*
X2451100Y1345010D03*
X2526100D03*
X2601100D03*
X2676100D03*
X2751100D03*
X2488600Y1420010D03*
X2563600D03*
X2638600D03*
X2713600D03*
X2788600D03*
X2451100Y1495010D03*
X2526100D03*
X2601100D03*
X2676100D03*
X2751100D03*
X2488600Y1570010D03*
X2563600D03*
X2638600D03*
X2713600D03*
X2788600D03*
X2601100Y1645010D03*
X2676100D03*
X2751100D03*
X2563600Y1720010D03*
X2638600D03*
X2713600D03*
X2788600D03*
X2526100Y1795010D03*
X2601100D03*
X2676100D03*
X2751100D03*
X2488600Y1870010D03*
X2713600D03*
X2788600D03*
X2751100Y1945010D03*
X2713600Y2020010D03*
X2788600D03*
X2601100Y2095010D03*
X2676100D03*
X2751100D03*
X2338600Y2170010D03*
X2413600D03*
X2488600D03*
X2563600D03*
X2638600D03*
X2713600D03*
X2788600D03*
X2676100Y2245010D03*
X2751100D03*
X2713600Y2320010D03*
X2788600D03*
X2676100Y2395010D03*
X2751100D03*
X2338600Y2470010D03*
X2413600D03*
X2488600D03*
X2563600D03*
X2638600D03*
X2713600D03*
X2788600D03*
X2301100Y2545010D03*
X2376100D03*
X2451100D03*
X2526100D03*
X2601100D03*
X2676100D03*
X2751100D03*
X2338600Y2620010D03*
X2413600D03*
X2488600D03*
X2563600D03*
X2638600D03*
X2713600D03*
X2788600D03*
X2301100Y2695010D03*
X2376100D03*
X2451100D03*
X2526100D03*
X2601100D03*
X2676100D03*
X2751100D03*
X2338600Y2770010D03*
X2413600D03*
X2488600D03*
X2563600D03*
X2638600D03*
X2713600D03*
X2788600D03*
X2301100Y2845010D03*
X2376100D03*
X2526100D03*
X2601100D03*
X2676100D03*
X2751100D03*
X2563600Y2920010D03*
X2638600D03*
X2713600D03*
X2788600D03*
X2863600Y-2929990D03*
X2938600D03*
X2826100Y-2854990D03*
X2901100D03*
X2976100D03*
X2863600Y-2779990D03*
X2938600D03*
X2826100Y-2704990D03*
X2901100D03*
X2976100D03*
X2863600Y-2629990D03*
X2938600D03*
X2826100Y-2554990D03*
X2901100D03*
X2976100D03*
X2863600Y-2479990D03*
X2938600D03*
X2826100Y-2404990D03*
X2901100D03*
X2976100D03*
X2863600Y-2329990D03*
X2938600D03*
X2826100Y-2254990D03*
X2901100D03*
X2976100D03*
X2863600Y-2179990D03*
X2938600D03*
X2826100Y-2104990D03*
X2901100D03*
X2976100D03*
X2863600Y-2029990D03*
X2938600D03*
X2826100Y-1954990D03*
X2901100D03*
X2976100D03*
X2863600Y-1879990D03*
X2938600D03*
X2826100Y-1804990D03*
X2901100D03*
X2976100D03*
X2863600Y-1729990D03*
X2938600D03*
X2826100Y-1654990D03*
X2901100D03*
X2976100D03*
X2863600Y-1579990D03*
X2938600D03*
X2826100Y-1504990D03*
X2901100D03*
X2976100D03*
X2863600Y-1429990D03*
X2938600D03*
X2826100Y-1354990D03*
X2901100D03*
X2976100D03*
X2863600Y-1279990D03*
X2938600D03*
X2826100Y-1204990D03*
X2901100D03*
X2976100D03*
X2863600Y-1129990D03*
X2938600D03*
X2826100Y-1054990D03*
X2901100D03*
X2976100D03*
X2863600Y-979990D03*
X2938600D03*
X2826100Y-904990D03*
X2901100D03*
X2976100D03*
X2863600Y-829990D03*
X2938600D03*
X2826100Y-754990D03*
X2901100D03*
X2976100D03*
X2863600Y-679990D03*
X2938600D03*
X2826100Y-604990D03*
X2901100D03*
X2976100D03*
X2863600Y-529990D03*
X2938600D03*
X2826100Y-454990D03*
X2901100D03*
X2976100D03*
X2863600Y-379990D03*
X2938600D03*
X2826100Y-304990D03*
X2901100D03*
X2976100D03*
X2863600Y-229990D03*
X2938600D03*
X2826100Y-154990D03*
X2901100D03*
X2976100D03*
X2863600Y-79990D03*
X2938600D03*
X2826100Y-4990D03*
X2901100D03*
X2976100D03*
X2863600Y70010D03*
X2938600D03*
X2826100Y145010D03*
X2901100D03*
X2976100D03*
X2863600Y220010D03*
X2938600D03*
X2826100Y295010D03*
X2901100D03*
X2976100D03*
X2863600Y370010D03*
X2938600D03*
X2826100Y445010D03*
X2901100D03*
X2976100D03*
X2863600Y520010D03*
X2938600D03*
X2826100Y595010D03*
X2901100D03*
X2976100D03*
X2863600Y670010D03*
X2938600D03*
X2826100Y745010D03*
X2901100D03*
X2976100D03*
X2863600Y820010D03*
X2938600D03*
X2826100Y895010D03*
X2901100D03*
X2976100D03*
X2863600Y970010D03*
X2938600D03*
X2826100Y1045010D03*
X2901100D03*
X2976100D03*
X2863600Y1120010D03*
X2938600D03*
X2826100Y1195010D03*
X2901100D03*
X2976100D03*
X2863600Y1270010D03*
X2938600D03*
X2826100Y1345010D03*
X2901100D03*
X2976100D03*
X2863600Y1420010D03*
X2938600D03*
X2826100Y1495010D03*
X2901100D03*
X2976100D03*
X2863600Y1570010D03*
X2938600D03*
X2826100Y1645010D03*
X2901100D03*
X2976100D03*
X2863600Y1720010D03*
X2938600D03*
X2826100Y1795010D03*
X2901100D03*
X2976100D03*
X2863600Y1870010D03*
X2938600D03*
X2826100Y1945010D03*
X2901100D03*
X2976100D03*
X2863600Y2020010D03*
X2938600D03*
X2826100Y2095010D03*
X2901100D03*
X2976100D03*
X2863600Y2170010D03*
X2938600D03*
X2826100Y2245010D03*
X2901100D03*
X2976100D03*
X2863600Y2320010D03*
X2938600D03*
X2826100Y2395010D03*
X2901100D03*
X2976100D03*
X2863600Y2470010D03*
X2938600D03*
X2826100Y2545010D03*
X2901100D03*
X2976100D03*
X2863600Y2620010D03*
X2938600D03*
X2826100Y2695010D03*
X2901100D03*
X2976100D03*
X2863600Y2770010D03*
X2938600D03*
X2826100Y2845010D03*
X2901100D03*
X2976100D03*
X2863600Y2920010D03*
X2938600D03*
G54D11*
X-2823660Y-2662500D03*
X-2550000Y-2548320D03*
X-2700000Y-2898600D03*
X-2752090Y-2954280D03*
X-2755680Y-2566820D03*
X-2735560Y-2470880D03*
X-2823660Y-2324990D03*
X-2600000Y-2436960D03*
Y-1534320D03*
X-2695000Y-1108000D03*
X-2735560Y-1385260D03*
X-2600000Y-1402840D03*
X-2505000D03*
X-2432960Y-2566820D03*
Y-2433180D03*
X-2112900Y-2488860D03*
X-2341820Y-2357500D03*
X-2395260Y-1746620D03*
X-2394320Y986700D03*
X-2065680Y1800000D03*
X-2401680Y1933180D03*
X-2392500Y2323180D03*
X-1550000Y-2855120D03*
X-1750000Y-2461880D03*
X-1808800Y1705000D03*
X-1808400Y1445000D03*
X-1448180Y2200000D03*
X-1803310Y1800000D03*
X-1601290Y1895000D03*
X-1807500Y2323180D03*
Y2676820D03*
X-1562100Y2483160D03*
X-1250000Y-2948500D03*
X-1094320Y-2799440D03*
X-1150000Y-2743760D03*
X-1094320Y-1146760D03*
X-1150000Y-525000D03*
X-1270000Y20680D03*
X-1250000Y-325000D03*
X-1201820Y374130D03*
X-1125000Y811820D03*
X-1100000Y1016700D03*
X-1201820Y900000D03*
Y1100000D03*
Y1482680D03*
X-1048180Y2000000D03*
X-901820D03*
Y2200000D03*
X-1301820Y2000000D03*
X-1103860Y2536500D03*
X-1169840Y2663500D03*
X-525000Y-662320D03*
X-475000Y-837680D03*
X-712320Y-375000D03*
Y-475000D03*
X-581240Y76360D03*
X-679290Y-175000D03*
X-620740Y415700D03*
X-751820Y1100000D03*
X-525000Y1538360D03*
X-395680Y2225280D03*
Y2653180D03*
X81210Y-1100000D03*
X-101820Y-1300000D03*
X149590D03*
Y-1029800D03*
X-302300Y-513260D03*
X-25000Y-872840D03*
X-275000Y-662320D03*
X-125000Y562320D03*
X-175000Y737680D03*
X-84300Y775380D03*
X-25000Y831060D03*
X-302300Y2000000D03*
X-230680Y2280960D03*
X-84300Y2149080D03*
X-25000Y2000000D03*
Y2374340D03*
X222700Y-1847920D03*
X298180Y-1300000D03*
X225000Y-662320D03*
X375000Y-837680D03*
X512320Y125000D03*
Y225000D03*
X687680Y425000D03*
X451200Y300000D03*
X225000Y737680D03*
X687680Y905680D03*
X666880Y1305200D03*
X385000Y1692500D03*
Y2436820D03*
X495000Y2653180D03*
X275000Y2416820D03*
X924320Y-2700000D03*
X1208710Y-2650000D03*
X896140Y-275000D03*
X1007500D03*
X720710Y175000D03*
X758810Y75000D03*
X776390Y227090D03*
X743360Y369320D03*
X912130Y373660D03*
X1100000Y451820D03*
X951820Y300000D03*
X1098180Y1600000D03*
X1100000Y1400000D03*
X722560Y2096990D03*
X1300000Y-2945200D03*
X1585000Y-1503820D03*
X1300000Y100000D03*
X1585000Y-203820D03*
X1668200Y752300D03*
X1373660Y748180D03*
X1300000D03*
X1253180Y1100000D03*
X1357410Y1600000D03*
X1253180Y1400000D03*
X1598180Y2300000D03*
X1937500Y-2036820D03*
X2262500D03*
X1863900Y-960270D03*
Y-355000D03*
X2197500Y2020680D03*
X1937500Y2676820D03*
X2262500Y2323180D03*
X2550000Y-2036820D03*
X2439380Y1684800D03*
X2600000Y1933180D03*
X2550000Y2323180D03*
X2455680Y2945200D03*
G54D12*
X-2100000Y-2700000D03*
X-2286000Y-1397000D03*
Y-1651000D03*
Y-1905000D03*
Y-889000D03*
Y-1143000D03*
Y-381000D03*
Y-635000D03*
Y127000D03*
Y-127000D03*
Y635000D03*
Y381000D03*
X-2000000Y800000D03*
X-2286000Y1143000D03*
Y889000D03*
Y1651000D03*
Y1397000D03*
Y1905000D03*
X-1800000Y-2700000D03*
X-1900000Y-1600000D03*
Y-1900000D03*
X-1750000Y-900000D03*
X-1550000D03*
X-1850000Y-700000D03*
X-1650000D03*
X-1450000D03*
X-1500000Y919000D03*
Y1173000D03*
Y1427000D03*
Y1681000D03*
X-1350000Y-900000D03*
X-1150000D03*
X-1250000Y-700000D03*
X-1100000Y1650000D03*
X-400000Y1200000D03*
X-850000Y1650000D03*
X125000Y-2361000D03*
X-125000D03*
Y-2039000D03*
X125000D03*
X1750000Y850000D03*
X1500000D03*
X1600000Y2000000D03*
Y2700000D03*
X2286000Y-1905000D03*
Y-1651000D03*
Y-1397000D03*
Y-1143000D03*
Y-889000D03*
Y-635000D03*
Y-381000D03*
Y-127000D03*
Y127000D03*
Y381000D03*
Y635000D03*
X2000000Y850000D03*
X2286000Y889000D03*
Y1143000D03*
Y1397000D03*
Y1651000D03*
X2100000Y1900000D03*
X2600000Y-100000D03*
G54D13*
X-602000Y-2315000D03*
X0Y-2756000D03*
Y-1637000D03*
X602000Y-2315000D03*
G54D14*
X1300000Y-1970000D03*
X1000000D03*
X1300000Y-1716000D03*
Y-1462000D03*
X1000000Y-1716000D03*
Y-1462000D03*
X1300000Y-1208000D03*
Y-954000D03*
X1000000Y-1208000D03*
Y-954000D03*
G54D15*
X1300000Y-700000D03*
X1000000D03*
G54D16*
X2286000Y1905000D03*
G54D17*
G01X-2823660Y-2324990D02*
Y-2662500D01*
G01D02*
X-2688460Y-2797700D01*
X-1897700D01*
X-1800000Y-2700000D01*
G01X-2394320Y986700D02*
X-2750680Y630340D01*
Y-1258780D01*
X-2679880Y-1329580D01*
Y-2508630D01*
X-2640190Y-2548320D01*
X-2550000D01*
G01X-2700000Y-2898600D02*
X-1808750D01*
X-1650000Y-2739850D01*
Y-700000D01*
G01X-2752090Y-2954280D02*
X-1529380D01*
X-1450000Y-2874900D01*
Y-700000D01*
G01X-2755680Y-2566820D02*
X-2622500Y-2700000D01*
X-2100000D01*
G01X-2735560Y-2470880D02*
Y-1385260D01*
G01X-2505000Y-1402840D02*
Y-2341960D01*
X-2600000Y-2436960D01*
G01Y-1534320D02*
Y-1402840D01*
G01X-2695000Y-1108000D02*
X-2548820Y-1254180D01*
X-2428820D01*
X-2286000Y-1397000D01*
G01X-2432960Y-2566820D02*
Y-2433180D01*
G01D02*
Y-2273350D01*
X-2188300Y-2028690D01*
Y1546250D01*
X-2029550Y1705000D01*
X-1808800D01*
G01X-1808400Y1445000D02*
X-2112900Y1140500D01*
Y-2488860D01*
G01X-1601290Y1895000D02*
Y1734830D01*
X-1760040Y1576080D01*
X-1833100D01*
X-2150600Y1258580D01*
Y-2278120D01*
X-2229980Y-2357500D01*
X-2341820D01*
G01X-2395260Y-1746620D02*
Y-1832500D01*
X-2322760Y-1905000D01*
X-2286000D01*
G01X-1803310Y1800000D02*
X-2065680D01*
G01X-2392500Y2323180D02*
Y1998040D01*
X-2401680Y1988860D01*
Y1933180D01*
G01X-1550000Y-2855120D02*
Y-900000D01*
G01X-1750000Y-2461880D02*
Y-900000D01*
G01X-679290Y-175000D02*
X-1532500D01*
X-1850000Y-492500D01*
Y-700000D01*
G01X-712320Y-375000D02*
X-818000Y-269320D01*
X-1432500D01*
X-1750000Y-586820D01*
Y-900000D01*
G01X-1270000Y20680D02*
Y689000D01*
X-1500000Y919000D01*
G01X-1562100Y2483160D02*
X-1506420Y2427480D01*
Y1785120D01*
X-1500000Y1778700D01*
Y1681000D01*
G01X-1201820Y1482680D02*
X-1400140Y1681000D01*
X-1500000D01*
G01X-1807500Y2323180D02*
Y1859870D01*
X-1803310Y1855680D01*
Y1800000D01*
G01X-1807500Y2676820D02*
Y2323180D01*
G01X-1250000Y-2948500D02*
Y-700000D01*
G01X-1094320Y-2799440D02*
Y-1146760D01*
G01X-1150000Y-2743760D02*
Y-900000D01*
G01X-1094320Y-1146760D02*
X-712320Y-764760D01*
Y-475000D01*
G01X-1250000Y-700000D02*
Y-325000D01*
G01X-1150000Y-900000D02*
Y-525000D01*
G01X-581240Y76360D02*
X-1125000Y620120D01*
Y811820D01*
G01X-1201820Y374130D02*
Y900000D01*
G01X-1100000Y1016700D02*
Y1650000D01*
G01X-1201820Y1100000D02*
Y1482680D01*
G01Y900000D02*
Y1100000D01*
G01X-1103860Y2536500D02*
Y1751560D01*
X-1100000Y1747700D01*
Y1650000D01*
G01X-620740Y415700D02*
Y1702050D01*
X-779490Y1860800D01*
X-908980D01*
X-1048180Y2000000D01*
G01X-1448180Y2200000D02*
Y2039690D01*
X-1408490Y2000000D01*
X-1301820D01*
G01X-1169840Y2663500D02*
X-1086780Y2746560D01*
X-230680D01*
X-137300Y2653180D01*
G01X-525000Y1538360D02*
Y-662320D01*
G01X-475000Y-837680D02*
X-357970Y-720650D01*
Y-648320D01*
X-278590Y-568940D01*
X-211420D01*
X106080Y-251440D01*
Y1195130D01*
X588380Y1677430D01*
Y2310200D01*
X1223380Y2945200D01*
X2455680D01*
G01X-751820Y1100000D02*
Y1551820D01*
X-850000Y1650000D01*
G01X-901820Y2200000D02*
Y2000000D01*
G01X-25000Y-872840D02*
Y-1393900D01*
X-222700Y-1591600D01*
Y-2095020D01*
X-143320Y-2174400D01*
X-10400D01*
X125000Y-2039000D01*
G01Y-2361000D02*
X412700Y-2073300D01*
Y-1970000D01*
G01X298180Y-1300000D02*
Y-1863910D01*
X258490Y-1903600D01*
X10400D01*
X-125000Y-2039000D01*
G01X-101820Y-1300000D02*
X-218720D01*
X-298100Y-1379380D01*
Y-2187900D01*
X-125000Y-2361000D01*
G01X81210Y-662320D02*
Y-1100000D01*
G01X-302300Y2000000D02*
Y-513260D01*
G01X-275000Y-662320D02*
X81210D01*
G01D02*
X225000D01*
G01X-125000Y562320D02*
X-230680Y668000D01*
Y2280960D01*
G01X-175000Y737680D02*
Y2615480D01*
X-137300Y2653180D01*
G01X-84300Y2149080D02*
Y775380D01*
G01X-25000Y2000000D02*
Y831060D01*
G01X275000Y2416820D02*
X219320D01*
X168420Y2467720D01*
X-44610D01*
X-84300Y2428030D01*
Y2149080D01*
G01X-25000Y2374340D02*
Y2000000D01*
G01X-395680Y2225280D02*
Y2653180D01*
G01X-137300D02*
X495000D01*
G01X512320Y125000D02*
Y-1398500D01*
X829820Y-1716000D01*
X1000000D01*
G01X412700Y-1970000D02*
X1000000D01*
G01X375000Y-837680D02*
Y-1932300D01*
X412700Y-1970000D01*
G01X149590Y-1300000D02*
X222700Y-1373110D01*
Y-1847920D01*
G01X512320Y225000D02*
X605700Y131620D01*
Y-1245900D01*
X923200Y-1563400D01*
X1101400D01*
G01X149590Y-1029800D02*
Y-1300000D01*
G01X225000Y-662320D02*
Y210570D01*
X383750Y369320D01*
X743360D01*
G01X451200Y300000D02*
X375000Y223800D01*
Y-837680D01*
G01X951820Y300000D02*
X451200D01*
G01X225000Y737680D02*
Y863320D01*
X666880Y1305200D01*
G01D02*
X722560Y1360880D01*
Y2096990D01*
G01X385000Y1692500D02*
Y2436820D01*
G01X924320Y-2700000D02*
X1101400Y-2522920D01*
Y-1563400D01*
G01X1208710Y-2650000D02*
X1139100Y-2580390D01*
Y-1093100D01*
X1000000Y-954000D01*
G01X720710Y175000D02*
Y119320D01*
X703130Y101740D01*
Y-1165130D01*
X1000000Y-1462000D01*
G01Y-1208000D02*
X1101400Y-1309400D01*
Y-1563400D01*
G01X758810Y75000D02*
X1176800Y-342990D01*
Y-1592800D01*
X1300000Y-1716000D01*
G01X1007500Y-275000D02*
X896140D01*
G01X776390Y227090D02*
X1280350D01*
X1439100Y68340D01*
Y-814900D01*
X1300000Y-954000D01*
G01X687680Y905680D02*
Y425000D01*
G01X912130Y373660D02*
Y1413950D01*
X1098180Y1600000D01*
G01X743360Y369320D02*
X852110D01*
X856450Y373660D01*
X912130D01*
G01X1100000Y1400000D02*
Y451820D01*
G01D02*
Y379380D01*
X1020620Y300000D01*
X951820D01*
G01X1098180Y1600000D02*
Y1800000D01*
X1598180Y2300000D01*
G01X722560Y2096990D02*
X1325570Y2700000D01*
X1600000D01*
G01X1300000Y-2945200D02*
Y-1970000D01*
G01X1585000Y-203820D02*
Y-1503820D01*
G01X1300000Y100000D02*
Y-700000D01*
G01X1937500Y-2036820D02*
Y375010D01*
X1620000Y692510D01*
X1617970D01*
X1562300Y748180D01*
G01X1863900Y-355000D02*
Y19000D01*
X1300000Y582900D01*
Y748180D01*
G01X1357410Y1600000D02*
Y992590D01*
X1500000Y850000D01*
G01X1668200Y752300D02*
X1902300D01*
X2000000Y850000D01*
G01X1373660Y748180D02*
X1562300D01*
G01X1600000Y2000000D02*
Y785880D01*
X1562300Y748180D01*
G01X1253180Y1100000D02*
Y1400000D01*
G01X1937500Y2676820D02*
Y2337500D01*
X1600000Y2000000D01*
G01X2550000Y-2036820D02*
X2262500D01*
G01X1863900Y-960270D02*
Y-355000D01*
G01X2197500Y2020680D02*
X2512500D01*
X2600000Y1933180D01*
G01X2262500Y2323180D02*
X2550000D01*
G01X2286000Y-127000D02*
X2383700D01*
X2410700Y-100000D01*
X2600000D01*
G01X2439380Y1684800D02*
Y1751620D01*
X2286000Y1905000D01*
M02*
