G04 ================== begin FILE IDENTIFICATION RECORD ==================*
G04 Layout Name:  hotpixel-routed.brd*
G04 Film Name:    SM_BOTTOM*
G04 File Format:  Gerber RS274X*
G04 File Origin:  Cadence Allegro 16.5-S026*
G04 Origin Date:  Sun Dec 16 15:38:47 2012*
G04 *
G04 Layer:  VIA CLASS/SOLDERMASK_BOTTOM*
G04 Layer:  PIN/SOLDERMASK_BOTTOM*
G04 Layer:  PACKAGE GEOMETRY/SOLDERMASK_BOTTOM*
G04 *
G04 Offset:    (0.0000 0.0000)*
G04 Mirror:    No*
G04 Mode:      Positive*
G04 Rotation:  0*
G04 FullContactRelief:  No*
G04 UndefLineWidth:     0.0000*
G04 ================== end FILE IDENTIFICATION RECORD ====================*
%FSLAX25Y25*MOIN*%
%IR0*IPPOS*OFA0.00000B0.00000*MIA0B0*SFA1.00000B1.00000*%
%ADD11C,.064961*%
%ADD14C,.075*%
%ADD13C,.116142*%
%ADD10C,.044*%
%ADD12R,.064961X.064961*%
%ADD15R,.075X.075*%
%LPD*%
G75*
G54D10*
X-111168Y-104823D03*
X-100394Y-100328D03*
X-106299Y-114118D03*
X-108350Y-116310D03*
X-108491Y-101056D03*
X-107699Y-97279D03*
X-111168Y-91535D03*
X-102362Y-95943D03*
Y-60406D03*
X-106102Y-43622D03*
X-107699Y-54538D03*
X-102362Y-55230D03*
X-98622D03*
X-95786Y-101056D03*
Y-95794D03*
X-83185Y-97987D03*
X-92198Y-92815D03*
X-94302Y-68765D03*
X-94265Y38846D03*
X-81326Y70866D03*
X-94554Y76109D03*
X-94193Y91464D03*
X-61024Y-112406D03*
X-68898Y-96924D03*
X-71213Y67126D03*
X-71197Y56890D03*
X-57015Y86614D03*
X-70996Y70866D03*
X-63043Y74606D03*
X-71161Y91464D03*
Y105387D03*
X-61500Y97762D03*
X-49213Y-116083D03*
X-43083Y-110214D03*
X-45276Y-108022D03*
X-43083Y-45148D03*
X-45276Y-20669D03*
X-50000Y814D03*
X-49213Y-12795D03*
X-47316Y14730D03*
X-44291Y31961D03*
X-43307Y40028D03*
X-47316Y35433D03*
Y43307D03*
Y58373D03*
X-41267Y78740D03*
X-35505D03*
Y86614D03*
X-51253Y78740D03*
X-43459Y99862D03*
X-46057Y104862D03*
X-20669Y-26076D03*
X-18701Y-32980D03*
X-28044Y-14764D03*
Y-18701D03*
X-22883Y3006D03*
X-26744Y-6890D03*
X-24439Y16366D03*
X-29599Y43307D03*
X-20669Y60565D03*
X-15578Y87609D03*
Y104456D03*
X3197Y-43307D03*
X-4009Y-51181D03*
X5889D03*
Y-40543D03*
X-11902Y-20207D03*
X-984Y-34364D03*
X-10827Y-26076D03*
X-4921Y22139D03*
X-6890Y29043D03*
X-3319Y30527D03*
X-984Y32719D03*
X-11902Y78740D03*
X-9082Y89802D03*
X-3319Y84609D03*
X-984Y78740D03*
Y93478D03*
X8768Y-72753D03*
X11739Y-51181D03*
X8858Y-26076D03*
X14764Y-32980D03*
X20170Y4921D03*
Y8858D03*
X27074Y16732D03*
X17764Y11811D03*
X8858Y29043D03*
X27074Y35657D03*
X26255Y51386D03*
X15157Y66634D03*
Y95938D03*
X19488Y104456D03*
X10827Y95150D03*
X36391Y-106299D03*
X47587Y-104331D03*
X35281Y-10827D03*
X39665D03*
X28374Y6890D03*
X29874Y2953D03*
X30567Y8941D03*
X29266Y14540D03*
X35911Y14711D03*
X43307Y17788D03*
X37473Y11811D03*
X43235Y62992D03*
X43307Y55118D03*
X28447Y82559D03*
X51181Y-115953D03*
X62402Y-59206D03*
X51181Y3937D03*
X62402Y-8024D03*
X65677Y29618D03*
X54081Y29456D03*
X51181D03*
X49338Y43307D03*
X53441Y62992D03*
X49338Y55118D03*
X62920Y90551D03*
X76280Y-80190D03*
X89075D03*
X73382Y-37806D03*
Y-13976D03*
X86516Y79554D03*
X76280Y105387D03*
X89075Y91464D03*
X100394Y-80190D03*
X96039Y66331D03*
X102362Y76109D03*
X100394Y91464D03*
X96680Y115953D03*
G54D11*
X-82677Y-106299D03*
X-90000Y-55000D03*
Y-65000D03*
Y-75000D03*
Y-35000D03*
Y-45000D03*
Y-15000D03*
Y-25000D03*
Y5000D03*
Y-5000D03*
Y25000D03*
Y15000D03*
X-78740Y31496D03*
X-90000Y45000D03*
Y35000D03*
Y65000D03*
Y55000D03*
Y75000D03*
X-70866Y-106299D03*
X-74803Y-62992D03*
Y-74803D03*
X-68898Y-35433D03*
X-61024D03*
X-72835Y-27559D03*
X-64961D03*
X-57087D03*
X-59055Y36181D03*
Y46181D03*
Y56181D03*
X-53150Y-35433D03*
X-45276D03*
X-49213Y-27559D03*
X-43307Y64961D03*
X-15748Y47244D03*
X-33465Y64961D03*
X4921Y-92953D03*
X-4921D03*
Y-80276D03*
X68898Y33465D03*
X59055D03*
X62992Y78740D03*
Y106299D03*
X90000Y-75000D03*
Y-65000D03*
Y-55000D03*
Y-45000D03*
Y-35000D03*
Y-25000D03*
Y-15000D03*
Y-5000D03*
Y5000D03*
Y15000D03*
Y25000D03*
X78740Y33465D03*
X90000Y35000D03*
Y45000D03*
Y55000D03*
Y65000D03*
X82677Y74803D03*
X102362Y-3937D03*
G54D12*
X-59055Y66181D03*
X4921Y-80276D03*
X90000Y75000D03*
G54D13*
X-23701Y-91142D03*
X0Y-108504D03*
Y-64449D03*
X23701Y-91142D03*
G54D14*
X51181Y-77559D03*
X39370D03*
X51181Y-67559D03*
Y-57559D03*
X39370Y-67559D03*
Y-57559D03*
X51181Y-47559D03*
Y-37559D03*
X39370Y-47559D03*
Y-37559D03*
G54D15*
X51181Y-27559D03*
X39370D03*
M02*
