G04 ================== begin FILE IDENTIFICATION RECORD ==================*
G04 Layout Name:  hotpixel-routed.brd*
G04 Film Name:    SS_BOTTOM*
G04 File Format:  Gerber RS274X*
G04 File Origin:  Cadence Allegro 16.5-S026*
G04 Origin Date:  Sun Dec 16 15:38:47 2012*
G04 *
G04 Layer:  REF DES/SILKSCREEN_BOTTOM*
G04 Layer:  PACKAGE GEOMETRY/SILKSCREEN_BOTTOM*
G04 Layer:  BOARD GEOMETRY/SILKSCREEN_BOTTOM*
G04 *
G04 Offset:    (0.0000 0.0000)*
G04 Mirror:    No*
G04 Mode:      Positive*
G04 Rotation:  0*
G04 FullContactRelief:  No*
G04 UndefLineWidth:     0.0000*
G04 ================== end FILE IDENTIFICATION RECORD ====================*
%FSLAX25Y25*MOIN*%
%IR0*IPPOS*OFA0.00000B0.00000*MIA0B0*SFA1.00000B1.00000*%
%ADD10C,.009843*%
%ADD11C,.029528*%
G75*
%LPD*%
G75*
G54D10*
G01X115142Y116268D02*
Y108268D01*
X111142D01*
G01X103142D02*
X107142D01*
Y116268D01*
X103142D01*
G01X104742Y112401D02*
X107142D01*
G01X99342Y108268D02*
Y116268D01*
X97342D01*
X96542Y115868D01*
X95942Y115334D01*
X95442Y114535D01*
X95042Y113601D01*
X94942Y112268D01*
X95042Y110934D01*
X95442Y110001D01*
X95942Y109201D01*
X96542Y108668D01*
X97342Y108268D01*
X99342D01*
G01X81142Y116268D02*
Y108268D01*
G01X83442Y116268D02*
X78842D01*
G01X73142Y108268D02*
X73942Y108401D01*
X74642Y108934D01*
X75242Y109734D01*
X75642Y110668D01*
X75842Y111734D01*
Y112801D01*
X75642Y113868D01*
X75242Y114801D01*
X74642Y115601D01*
X73942Y116134D01*
X73142Y116268D01*
X72342Y116134D01*
X71642Y115601D01*
X71042Y114801D01*
X70642Y113868D01*
X70442Y112801D01*
Y111734D01*
X70642Y110668D01*
X71042Y109734D01*
X71642Y108934D01*
X72342Y108401D01*
X73142Y108268D01*
G01X67142D02*
Y116268D01*
X64742D01*
X63942Y115868D01*
X63342Y114934D01*
X63142Y113868D01*
X63342Y112801D01*
X63842Y112001D01*
X64742Y111601D01*
X67142D01*
G01X107468Y78740D02*
Y86740D01*
X105468D01*
X104668Y86340D01*
X104068Y85807D01*
X103568Y85007D01*
X103168Y84073D01*
X103068Y82740D01*
X103168Y81407D01*
X103568Y80473D01*
X104068Y79673D01*
X104668Y79140D01*
X105468Y78740D01*
X107468D01*
G01X97268D02*
Y86740D01*
X98468Y85140D01*
G01Y78740D02*
X96068D01*
G54D11*
G01X119094Y119094D02*
X-119094D01*
Y-119094D01*
X119094D01*
Y119094D01*
M02*
