G04 ================== begin FILE IDENTIFICATION RECORD ==================*
G04 Layout Name:  hotpixel-routed.brd*
G04 Film Name:    SS_TOP*
G04 File Format:  Gerber RS274X*
G04 File Origin:  Cadence Allegro 16.5-S026*
G04 Origin Date:  Sun Dec 16 15:48:49 2012*
G04 *
G04 Layer:  REF DES/SILKSCREEN_TOP*
G04 Layer:  PACKAGE GEOMETRY/SILKSCREEN_TOP*
G04 Layer:  BOARD GEOMETRY/SILKSCREEN_TOP*
G04 *
G04 Offset:    (0.0000 0.0000)*
G04 Mirror:    No*
G04 Mode:      Positive*
G04 Rotation:  0*
G04 FullContactRelief:  No*
G04 UndefLineWidth:     0.0000*
G04 ================== end FILE IDENTIFICATION RECORD ====================*
%FSLAX25Y25*MOMM*%
%IR0*IPPOS*OFA0.00000B0.00000*MIA0B0*SFA1.00000B1.00000*%
%ADD10C,.1*%
%ADD11C,.2*%
%ADD12C,.3*%
%ADD13C,.15*%
%ADD14C,.2032*%
%ADD15C,.25*%
G75*
%LPD*%
G75*
G54D10*
G01X-2750000Y-2001740D02*
X-2752120Y-2014610D01*
X-2760580Y-2025870D01*
X-2773280Y-2035520D01*
X-2788100Y-2041960D01*
X-2805030Y-2045180D01*
X-2821970D01*
X-2838900Y-2041960D01*
X-2853720Y-2035520D01*
X-2866420Y-2025870D01*
X-2874880Y-2014610D01*
X-2877000Y-2001740D01*
X-2874880Y-1988870D01*
X-2866420Y-1977610D01*
X-2853720Y-1967960D01*
X-2838900Y-1961520D01*
X-2821970Y-1958300D01*
X-2805030D01*
X-2788100Y-1961520D01*
X-2773280Y-1967960D01*
X-2760580Y-1977610D01*
X-2752120Y-1988870D01*
X-2750000Y-2001740D01*
G01X-2783870Y-1988870D02*
X-2750000Y-1969570D01*
G01X-2769050Y-1907590D02*
X-2758460Y-1897940D01*
X-2752120Y-1886680D01*
X-2750000Y-1872200D01*
X-2754230Y-1857720D01*
X-2762700Y-1846460D01*
X-2777510Y-1838420D01*
X-2794450Y-1836810D01*
X-2811380Y-1840030D01*
X-2821970Y-1848070D01*
X-2830430Y-1859330D01*
X-2832550Y-1870590D01*
X-2830430Y-1881850D01*
X-2821970Y-1896330D01*
X-2877000Y-1891500D01*
Y-1848070D01*
G01X-2750000Y-1401740D02*
X-2752120Y-1414610D01*
X-2760580Y-1425870D01*
X-2773280Y-1435520D01*
X-2788100Y-1441960D01*
X-2805030Y-1445180D01*
X-2821970D01*
X-2838900Y-1441960D01*
X-2853720Y-1435520D01*
X-2866420Y-1425870D01*
X-2874880Y-1414610D01*
X-2877000Y-1401740D01*
X-2874880Y-1388870D01*
X-2866420Y-1377610D01*
X-2853720Y-1367960D01*
X-2838900Y-1361520D01*
X-2821970Y-1358300D01*
X-2805030D01*
X-2788100Y-1361520D01*
X-2773280Y-1367960D01*
X-2760580Y-1377610D01*
X-2752120Y-1388870D01*
X-2750000Y-1401740D01*
G01X-2783870Y-1388870D02*
X-2750000Y-1369570D01*
G01X-2802910Y-1302770D02*
X-2817730Y-1291500D01*
X-2826200Y-1281850D01*
X-2830430Y-1268980D01*
X-2826200Y-1257720D01*
X-2817730Y-1249680D01*
X-2805030Y-1243240D01*
X-2790220Y-1241630D01*
X-2777510Y-1243240D01*
X-2764810Y-1249680D01*
X-2754230Y-1259330D01*
X-2750000Y-1270590D01*
X-2754230Y-1283460D01*
X-2766930Y-1294720D01*
X-2785980Y-1301160D01*
X-2807150Y-1302770D01*
X-2834660Y-1299550D01*
X-2849490Y-1294720D01*
X-2864300Y-1286680D01*
X-2874880Y-1275420D01*
X-2877000Y-1264160D01*
X-2872770Y-1252900D01*
X-2862180Y-1244850D01*
G01X-2850000Y1861770D02*
X-2883500D01*
Y1872460D01*
X-2881820Y1875880D01*
X-2879590Y1878010D01*
X-2875120Y1878870D01*
X-2870660Y1878010D01*
X-2867870Y1875450D01*
X-2866190Y1872460D01*
Y1861770D01*
G01Y1872460D02*
X-2850000Y1878870D01*
G01Y1901370D02*
X-2883500D01*
X-2850000Y1921030D01*
X-2883500D01*
G01X-2877920Y1943960D02*
X-2881270Y1946520D01*
X-2882940Y1949520D01*
X-2883500Y1952930D01*
X-2882380Y1957210D01*
X-2879590Y1960200D01*
X-2876240Y1961050D01*
X-2872890Y1960630D01*
X-2870100Y1958920D01*
X-2864520Y1950370D01*
X-2860610Y1946520D01*
X-2855020Y1943960D01*
X-2850000Y1943110D01*
Y1961050D01*
G01X-2350000Y-2604270D02*
X-2316500D01*
Y-2614960D01*
X-2318180Y-2618380D01*
X-2320410Y-2620510D01*
X-2324880Y-2621370D01*
X-2329340Y-2620510D01*
X-2332130Y-2617950D01*
X-2333810Y-2614960D01*
Y-2604270D01*
G01Y-2614960D02*
X-2350000Y-2621370D01*
G01Y-2643870D02*
X-2316500D01*
X-2350000Y-2663530D01*
X-2316500D01*
G01X-2344980Y-2685180D02*
X-2347770Y-2687740D01*
X-2349440Y-2690730D01*
X-2350000Y-2694580D01*
X-2348880Y-2698430D01*
X-2346650Y-2701420D01*
X-2342740Y-2703550D01*
X-2338280Y-2703980D01*
X-2333810Y-2703130D01*
X-2331020Y-2700990D01*
X-2328780Y-2698000D01*
X-2328230Y-2695010D01*
X-2328780Y-2692020D01*
X-2331020Y-2688170D01*
X-2316500Y-2689450D01*
Y-2700990D01*
G01X-2350000Y-2204270D02*
X-2316500D01*
Y-2214960D01*
X-2318180Y-2218380D01*
X-2320410Y-2220510D01*
X-2324880Y-2221370D01*
X-2329340Y-2220510D01*
X-2332130Y-2217950D01*
X-2333810Y-2214960D01*
Y-2204270D01*
G01Y-2214960D02*
X-2350000Y-2221370D01*
G01Y-2243870D02*
X-2316500D01*
X-2350000Y-2263530D01*
X-2316500D01*
G01X-2350000Y-2299710D02*
X-2316500D01*
X-2340510Y-2283900D01*
Y-2305260D01*
G01X-1748260Y1150000D02*
X-1735390Y1147880D01*
X-1724130Y1139420D01*
X-1714480Y1126720D01*
X-1708040Y1111900D01*
X-1704820Y1094970D01*
Y1078030D01*
X-1708040Y1061100D01*
X-1714480Y1046280D01*
X-1724130Y1033580D01*
X-1735390Y1025120D01*
X-1748260Y1023000D01*
X-1761130Y1025120D01*
X-1772390Y1033580D01*
X-1782040Y1046280D01*
X-1788480Y1061100D01*
X-1791700Y1078030D01*
Y1094970D01*
X-1788480Y1111900D01*
X-1782040Y1126720D01*
X-1772390Y1139420D01*
X-1761130Y1147880D01*
X-1748260Y1150000D01*
G01X-1761130Y1116130D02*
X-1780430Y1150000D01*
G01X-1874580D02*
X-1877800Y1122490D01*
X-1882630Y1099200D01*
X-1889060Y1078030D01*
X-1897100Y1054750D01*
X-1909970Y1023000D01*
X-1845630D01*
G01X-1698260Y1650000D02*
X-1685390Y1647880D01*
X-1674130Y1639420D01*
X-1664480Y1626720D01*
X-1658040Y1611900D01*
X-1654820Y1594970D01*
Y1578030D01*
X-1658040Y1561100D01*
X-1664480Y1546280D01*
X-1674130Y1533580D01*
X-1685390Y1525120D01*
X-1698260Y1523000D01*
X-1711130Y1525120D01*
X-1722390Y1533580D01*
X-1732040Y1546280D01*
X-1738480Y1561100D01*
X-1741700Y1578030D01*
Y1594970D01*
X-1738480Y1611900D01*
X-1732040Y1626720D01*
X-1722390Y1639420D01*
X-1711130Y1647880D01*
X-1698260Y1650000D01*
G01X-1711130Y1616130D02*
X-1730430Y1650000D01*
G01X-1827800D02*
X-1839060Y1647880D01*
X-1851930Y1641540D01*
X-1859970Y1630950D01*
X-1863190Y1616130D01*
X-1859970Y1601320D01*
X-1850320Y1588620D01*
X-1835840Y1582270D01*
X-1819760D01*
X-1810100Y1578030D01*
X-1802060Y1567450D01*
X-1798840Y1552630D01*
X-1803670Y1537820D01*
X-1814930Y1527230D01*
X-1827800Y1523000D01*
X-1840670Y1527230D01*
X-1851930Y1537820D01*
X-1856760Y1552630D01*
X-1853540Y1567450D01*
X-1845500Y1578030D01*
X-1835840Y1582270D01*
X-1819760D01*
X-1805280Y1588620D01*
X-1795630Y1601320D01*
X-1792410Y1616130D01*
X-1795630Y1630950D01*
X-1803670Y1641540D01*
X-1816540Y1647880D01*
X-1827800Y1650000D01*
G01X-1637130Y1950000D02*
Y2077000D01*
X-1604970D01*
X-1592100Y2070650D01*
X-1582450Y2062180D01*
X-1574410Y2049490D01*
X-1567970Y2034660D01*
X-1566370Y2013500D01*
X-1567970Y1992330D01*
X-1574410Y1977510D01*
X-1582450Y1964810D01*
X-1592100Y1956350D01*
X-1604970Y1950000D01*
X-1637130D01*
G01X-1472250D02*
X-1460990Y1952120D01*
X-1448130Y1958460D01*
X-1440080Y1969050D01*
X-1436870Y1983870D01*
X-1440080Y1998680D01*
X-1449730Y2011380D01*
X-1464210Y2017730D01*
X-1480290D01*
X-1489940Y2021970D01*
X-1497990Y2032550D01*
X-1501200Y2047370D01*
X-1496370Y2062180D01*
X-1485120Y2072770D01*
X-1472250Y2077000D01*
X-1459380Y2072770D01*
X-1448130Y2062180D01*
X-1443300Y2047370D01*
X-1446520Y2032550D01*
X-1454560Y2021970D01*
X-1464210Y2017730D01*
X-1480290D01*
X-1494770Y2011380D01*
X-1504420Y1998680D01*
X-1507630Y1983870D01*
X-1504420Y1969050D01*
X-1496370Y1958460D01*
X-1483510Y1952120D01*
X-1472250Y1950000D01*
G01X-1633920Y2150000D02*
Y2277000D01*
X-1593710D01*
X-1580840Y2270650D01*
X-1572800Y2262180D01*
X-1569580Y2245250D01*
X-1572800Y2228320D01*
X-1582450Y2217730D01*
X-1593710Y2211380D01*
X-1633920D01*
G01X-1593710D02*
X-1569580Y2150000D01*
G01X-1507630Y2169050D02*
X-1497990Y2158460D01*
X-1486730Y2152120D01*
X-1472250Y2150000D01*
X-1457770Y2154230D01*
X-1446520Y2162700D01*
X-1438470Y2177510D01*
X-1436870Y2194450D01*
X-1440080Y2211380D01*
X-1448130Y2221970D01*
X-1459380Y2230430D01*
X-1470640Y2232550D01*
X-1481900Y2230430D01*
X-1496370Y2221970D01*
X-1491550Y2277000D01*
X-1448130D01*
G01X-1623000Y2887130D02*
X-1714020D01*
X-1733070Y2880700D01*
X-1745770Y2867830D01*
X-1750000Y2851740D01*
X-1745770Y2835650D01*
X-1733070Y2822780D01*
X-1714020Y2816350D01*
X-1623000D01*
G01X-1750000Y2702900D02*
X-1623000D01*
X-1714020Y2762420D01*
Y2681980D01*
G01X-1130000Y-2320000D02*
Y-2360000D01*
X-870000D01*
Y-1840000D01*
X-1130000D01*
Y-1880000D01*
G01X-1216370Y816420D02*
X-1226020Y822770D01*
X-1237270Y827000D01*
X-1250140D01*
X-1264620Y820650D01*
X-1275870Y810070D01*
X-1283920Y797370D01*
X-1290350Y776200D01*
X-1291960Y757150D01*
X-1288740Y738100D01*
X-1283920Y725400D01*
X-1274270Y712700D01*
X-1263010Y704230D01*
X-1251750Y700000D01*
X-1240490D01*
X-1229230Y704230D01*
X-1219580Y710580D01*
X-1211540Y719050D01*
G01X-1149590Y714810D02*
X-1138330Y704230D01*
X-1125470Y700000D01*
X-1112600Y704230D01*
X-1101340Y716930D01*
X-1093300Y735980D01*
X-1090080Y755030D01*
Y778320D01*
X-1093300Y797370D01*
X-1101340Y814300D01*
X-1110990Y822770D01*
X-1122250Y827000D01*
X-1135120Y822770D01*
X-1144770Y814300D01*
X-1151200Y801600D01*
X-1154420Y784660D01*
X-1151200Y769850D01*
X-1143160Y755030D01*
X-1133510Y746560D01*
X-1122250Y744450D01*
X-1109380Y748680D01*
X-1099730Y759270D01*
X-1090080Y778320D01*
G01X-916370Y816420D02*
X-926020Y822770D01*
X-937270Y827000D01*
X-950140D01*
X-964620Y820650D01*
X-975870Y810070D01*
X-983920Y797370D01*
X-990350Y776200D01*
X-991960Y757150D01*
X-988740Y738100D01*
X-983920Y725400D01*
X-974270Y712700D01*
X-963010Y704230D01*
X-951750Y700000D01*
X-940490D01*
X-929230Y704230D01*
X-919580Y710580D01*
X-911540Y719050D01*
G01X-852810Y752910D02*
X-841550Y767730D01*
X-831900Y776200D01*
X-819030Y780430D01*
X-807770Y776200D01*
X-799730Y767730D01*
X-793300Y755030D01*
X-791690Y740220D01*
X-793300Y727510D01*
X-799730Y714810D01*
X-809380Y704230D01*
X-820640Y700000D01*
X-833510Y704230D01*
X-844770Y716930D01*
X-851200Y735980D01*
X-852810Y757150D01*
X-849590Y784660D01*
X-844770Y799490D01*
X-836730Y814300D01*
X-825470Y824880D01*
X-814210Y827000D01*
X-802950Y822770D01*
X-794910Y812180D01*
G01X-1192210Y578740D02*
Y522310D01*
X-1188320Y510500D01*
X-1180530Y502620D01*
X-1170790Y500000D01*
X-1161050Y502620D01*
X-1153260Y510500D01*
X-1149370Y522310D01*
Y578740D01*
G01X-1094000Y500000D02*
X-1092050Y517060D01*
X-1089130Y531490D01*
X-1085230Y544620D01*
X-1080370Y559050D01*
X-1072580Y578740D01*
X-1111520D01*
G01X-1216370Y1316420D02*
X-1226020Y1322770D01*
X-1237270Y1327000D01*
X-1250140D01*
X-1264620Y1320650D01*
X-1275870Y1310070D01*
X-1283920Y1297370D01*
X-1290350Y1276200D01*
X-1291960Y1257150D01*
X-1288740Y1238100D01*
X-1283920Y1225400D01*
X-1274270Y1212700D01*
X-1263010Y1204230D01*
X-1251750Y1200000D01*
X-1240490D01*
X-1229230Y1204230D01*
X-1219580Y1210580D01*
X-1211540Y1219050D01*
G01X-1122250Y1200000D02*
X-1110990Y1202120D01*
X-1098130Y1208460D01*
X-1090080Y1219050D01*
X-1086870Y1233870D01*
X-1090080Y1248680D01*
X-1099730Y1261380D01*
X-1114210Y1267730D01*
X-1130290D01*
X-1139940Y1271970D01*
X-1147990Y1282550D01*
X-1151200Y1297370D01*
X-1146370Y1312180D01*
X-1135120Y1322770D01*
X-1122250Y1327000D01*
X-1109380Y1322770D01*
X-1098130Y1312180D01*
X-1093300Y1297370D01*
X-1096520Y1282550D01*
X-1104560Y1271970D01*
X-1114210Y1267730D01*
X-1130290D01*
X-1144770Y1261380D01*
X-1154420Y1248680D01*
X-1157630Y1233870D01*
X-1154420Y1219050D01*
X-1146370Y1208460D01*
X-1133510Y1202120D01*
X-1122250Y1200000D01*
G01X-916370Y1316420D02*
X-926020Y1322770D01*
X-937270Y1327000D01*
X-950140D01*
X-964620Y1320650D01*
X-975870Y1310070D01*
X-983920Y1297370D01*
X-990350Y1276200D01*
X-991960Y1257150D01*
X-988740Y1238100D01*
X-983920Y1225400D01*
X-974270Y1212700D01*
X-963010Y1204230D01*
X-951750Y1200000D01*
X-940490D01*
X-929230Y1204230D01*
X-919580Y1210580D01*
X-911540Y1219050D01*
G01X-857630Y1225400D02*
X-847990Y1210580D01*
X-835120Y1202120D01*
X-820640Y1200000D01*
X-807770Y1202120D01*
X-794910Y1212700D01*
X-786870Y1225400D01*
X-785260Y1238100D01*
X-788470Y1252910D01*
X-799730Y1263500D01*
X-810990Y1267730D01*
X-825470D01*
G01X-810990D02*
X-801340Y1274080D01*
X-793300Y1284660D01*
X-790080Y1297370D01*
X-793300Y1310070D01*
X-801340Y1320650D01*
X-815820Y1327000D01*
X-830290Y1324880D01*
X-844770Y1316420D01*
G01X-1444580Y2963500D02*
Y2917990D01*
X-1441870Y2908460D01*
X-1436450Y2902120D01*
X-1429680Y2900000D01*
X-1422910Y2902120D01*
X-1417490Y2908460D01*
X-1414780Y2917990D01*
Y2963500D01*
G01X-1373800Y2900000D02*
Y2963500D01*
X-1381930Y2950800D01*
G01Y2900000D02*
X-1365670D01*
G01X-1317920Y2963500D02*
X-1323340Y2961380D01*
X-1327400Y2956090D01*
X-1330110Y2949740D01*
X-1332140Y2941270D01*
X-1332820Y2931750D01*
X-1332140Y2922220D01*
X-1330110Y2913760D01*
X-1327400Y2907410D01*
X-1323340Y2902120D01*
X-1317920Y2900000D01*
X-1312500Y2902120D01*
X-1308440Y2907410D01*
X-1305730Y2913760D01*
X-1303700Y2922220D01*
X-1303020Y2931750D01*
X-1303700Y2941270D01*
X-1305730Y2949740D01*
X-1308440Y2956090D01*
X-1312500Y2961380D01*
X-1317920Y2963500D01*
G01X-433920Y-1350000D02*
Y-1223000D01*
X-393710D01*
X-380840Y-1229350D01*
X-372800Y-1237820D01*
X-369580Y-1254750D01*
X-372800Y-1271680D01*
X-382450Y-1282270D01*
X-393710Y-1288620D01*
X-433920D01*
G01X-393710D02*
X-369580Y-1350000D01*
G01X-272250D02*
X-260990Y-1347880D01*
X-248130Y-1341540D01*
X-240080Y-1330950D01*
X-236870Y-1316130D01*
X-240080Y-1301320D01*
X-249730Y-1288620D01*
X-264210Y-1282270D01*
X-280290D01*
X-289940Y-1278030D01*
X-297990Y-1267450D01*
X-301200Y-1252630D01*
X-296370Y-1237820D01*
X-285120Y-1227230D01*
X-272250Y-1223000D01*
X-259380Y-1227230D01*
X-248130Y-1237820D01*
X-243300Y-1252630D01*
X-246520Y-1267450D01*
X-254560Y-1278030D01*
X-264210Y-1282270D01*
X-280290D01*
X-294770Y-1288620D01*
X-304420Y-1301320D01*
X-307630Y-1316130D01*
X-304420Y-1330950D01*
X-296370Y-1341540D01*
X-283510Y-1347880D01*
X-272250Y-1350000D01*
G01X-366370Y-1033580D02*
X-376020Y-1027230D01*
X-387270Y-1023000D01*
X-400140D01*
X-414620Y-1029350D01*
X-425870Y-1039930D01*
X-433920Y-1052630D01*
X-440350Y-1073800D01*
X-441960Y-1092850D01*
X-438740Y-1111900D01*
X-433920Y-1124600D01*
X-424270Y-1137300D01*
X-413010Y-1145770D01*
X-401750Y-1150000D01*
X-390490D01*
X-379230Y-1145770D01*
X-369580Y-1139420D01*
X-361540Y-1130950D01*
G01X-302810Y-1044170D02*
X-293160Y-1031470D01*
X-281900Y-1025120D01*
X-269030Y-1023000D01*
X-252950Y-1027230D01*
X-241690Y-1037820D01*
X-238470Y-1050510D01*
X-240080Y-1063220D01*
X-246520Y-1073800D01*
X-278680Y-1094970D01*
X-293160Y-1109780D01*
X-302810Y-1130950D01*
X-306030Y-1150000D01*
X-238470D01*
G01X-650000Y1862870D02*
X-777000D01*
Y1895030D01*
X-770650Y1907900D01*
X-762180Y1917550D01*
X-749490Y1925590D01*
X-734660Y1932030D01*
X-713500Y1933630D01*
X-692330Y1932030D01*
X-677510Y1925590D01*
X-664810Y1917550D01*
X-656350Y1907900D01*
X-650000Y1895030D01*
Y1862870D01*
G01Y2024530D02*
X-677510Y2027750D01*
X-700800Y2032580D01*
X-721970Y2039010D01*
X-745250Y2047050D01*
X-777000Y2059920D01*
Y1995580D01*
G01X-650000Y2116080D02*
X-777000D01*
Y2156290D01*
X-770650Y2169160D01*
X-762180Y2177200D01*
X-745250Y2180420D01*
X-728320Y2177200D01*
X-717730Y2167550D01*
X-711380Y2156290D01*
Y2116080D01*
G01Y2156290D02*
X-650000Y2180420D01*
G01Y2297050D02*
X-777000D01*
X-685980Y2237540D01*
Y2317960D01*
G01X-116370Y1066420D02*
X-126020Y1072770D01*
X-137270Y1077000D01*
X-150140D01*
X-164620Y1070650D01*
X-175870Y1060070D01*
X-183920Y1047370D01*
X-190350Y1026200D01*
X-191960Y1007150D01*
X-188740Y988100D01*
X-183920Y975400D01*
X-174270Y962700D01*
X-163010Y954230D01*
X-151750Y950000D01*
X-140490D01*
X-129230Y954230D01*
X-119580Y960580D01*
X-111540Y969050D01*
G01X-2950Y950000D02*
Y1077000D01*
X-62460Y985980D01*
X17960D01*
G01X466080Y-1350000D02*
Y-1223000D01*
X506290D01*
X519160Y-1229350D01*
X527200Y-1237820D01*
X530420Y-1254750D01*
X527200Y-1271680D01*
X517550Y-1282270D01*
X506290Y-1288620D01*
X466080D01*
G01X506290D02*
X530420Y-1350000D01*
G01X600410Y-1335190D02*
X611670Y-1345770D01*
X624530Y-1350000D01*
X637400Y-1345770D01*
X648660Y-1333070D01*
X656700Y-1314020D01*
X659920Y-1294970D01*
Y-1271680D01*
X656700Y-1252630D01*
X648660Y-1235700D01*
X639010Y-1227230D01*
X627750Y-1223000D01*
X614880Y-1227230D01*
X605230Y-1235700D01*
X598800Y-1248400D01*
X595580Y-1265340D01*
X598800Y-1280150D01*
X606840Y-1294970D01*
X616490Y-1303440D01*
X627750Y-1305550D01*
X640620Y-1301320D01*
X650270Y-1290730D01*
X659920Y-1271680D01*
G01X533630Y-1033580D02*
X523980Y-1027230D01*
X512730Y-1023000D01*
X499860D01*
X485380Y-1029350D01*
X474130Y-1039930D01*
X466080Y-1052630D01*
X459650Y-1073800D01*
X458040Y-1092850D01*
X461260Y-1111900D01*
X466080Y-1124600D01*
X475730Y-1137300D01*
X486990Y-1145770D01*
X498250Y-1150000D01*
X509510D01*
X520770Y-1145770D01*
X530420Y-1139420D01*
X538460Y-1130950D01*
G01X627750Y-1150000D02*
Y-1023000D01*
X608450Y-1048400D01*
G01Y-1150000D02*
X647050D01*
G01X283630Y916420D02*
X273980Y922770D01*
X262730Y927000D01*
X249860D01*
X235380Y920650D01*
X224130Y910070D01*
X216080Y897370D01*
X209650Y876200D01*
X208040Y857150D01*
X211260Y838100D01*
X216080Y825400D01*
X225730Y812700D01*
X236990Y804230D01*
X248250Y800000D01*
X259510D01*
X270770Y804230D01*
X280420Y810580D01*
X288460Y819050D01*
G01X377750Y800000D02*
Y927000D01*
X358450Y901600D01*
G01Y800000D02*
X397050D01*
G01X471870Y825400D02*
X481510Y810580D01*
X494380Y802120D01*
X508860Y800000D01*
X521730Y802120D01*
X534590Y812700D01*
X542630Y825400D01*
X544240Y838100D01*
X541030Y852910D01*
X529770Y863500D01*
X518510Y867730D01*
X504030D01*
G01X518510D02*
X528160Y874080D01*
X536200Y884660D01*
X539420Y897370D01*
X536200Y910070D01*
X528160Y920650D01*
X513680Y927000D01*
X499210Y924880D01*
X484730Y916420D01*
G01X866370Y1333580D02*
X876020Y1327230D01*
X887270Y1323000D01*
X900140D01*
X914620Y1329350D01*
X925870Y1339930D01*
X933920Y1352630D01*
X940350Y1373800D01*
X941960Y1392850D01*
X938740Y1411900D01*
X933920Y1424600D01*
X924270Y1437300D01*
X913010Y1445770D01*
X901750Y1450000D01*
X890490D01*
X879230Y1445770D01*
X869580Y1439420D01*
X861540Y1430950D01*
G01X772250Y1450000D02*
Y1323000D01*
X791550Y1348400D01*
G01Y1450000D02*
X752950D01*
G01X673310Y1344170D02*
X663660Y1331470D01*
X652400Y1325120D01*
X639530Y1323000D01*
X623450Y1327230D01*
X612190Y1337820D01*
X608970Y1350510D01*
X610580Y1363220D01*
X617020Y1373800D01*
X649180Y1394970D01*
X663660Y1409780D01*
X673310Y1430950D01*
X676530Y1450000D01*
X608970D01*
G01X905420Y-2386500D02*
Y-2432010D01*
X908130Y-2441540D01*
X913550Y-2447880D01*
X920320Y-2450000D01*
X927090Y-2447880D01*
X932510Y-2441540D01*
X935220Y-2432010D01*
Y-2386500D01*
G01X976200Y-2450000D02*
Y-2386500D01*
X968070Y-2399200D01*
G01Y-2450000D02*
X984330D01*
G01X1019210Y-2397080D02*
X1023270Y-2390730D01*
X1028020Y-2387560D01*
X1033430Y-2386500D01*
X1040210Y-2388620D01*
X1044950Y-2393910D01*
X1046300Y-2400260D01*
X1045630Y-2406610D01*
X1042920Y-2411900D01*
X1029370Y-2422480D01*
X1023270Y-2429890D01*
X1019210Y-2440480D01*
X1017860Y-2450000D01*
X1046300D01*
G01X850000Y-66080D02*
X977000D01*
Y-106290D01*
X970650Y-119160D01*
X962180Y-127200D01*
X945250Y-130420D01*
X928320Y-127200D01*
X917730Y-117550D01*
X911380Y-106290D01*
Y-66080D01*
G01Y-106290D02*
X850000Y-130420D01*
G01X902910Y-197190D02*
X917730Y-208450D01*
X926200Y-218100D01*
X930430Y-230970D01*
X926200Y-242230D01*
X917730Y-250270D01*
X905030Y-256700D01*
X890220Y-258310D01*
X877510Y-256700D01*
X864810Y-250270D01*
X854230Y-240620D01*
X850000Y-229360D01*
X854230Y-216490D01*
X866930Y-205230D01*
X885980Y-198800D01*
X907150Y-197190D01*
X934660Y-200410D01*
X949490Y-205230D01*
X964300Y-213270D01*
X974880Y-224530D01*
X977000Y-235790D01*
X972770Y-247050D01*
X962180Y-255090D01*
G01X900000Y683920D02*
X1027000D01*
Y643710D01*
X1020650Y630840D01*
X1012180Y622800D01*
X995250Y619580D01*
X978320Y622800D01*
X967730Y632450D01*
X961380Y643710D01*
Y683920D01*
G01Y643710D02*
X900000Y619580D01*
G01Y525470D02*
X927510Y522250D01*
X950800Y517420D01*
X971970Y510990D01*
X995250Y502950D01*
X1027000Y490080D01*
Y554420D01*
G01X1016080Y1700000D02*
Y1827000D01*
X1056290D01*
X1069160Y1820650D01*
X1077200Y1812180D01*
X1080420Y1795250D01*
X1077200Y1778320D01*
X1067550Y1767730D01*
X1056290Y1761380D01*
X1016080D01*
G01X1056290D02*
X1080420Y1700000D01*
G01X1142370Y1725400D02*
X1152010Y1710580D01*
X1164880Y1702120D01*
X1179360Y1700000D01*
X1192230Y1702120D01*
X1205090Y1712700D01*
X1213130Y1725400D01*
X1214740Y1738100D01*
X1211530Y1752910D01*
X1200270Y1763500D01*
X1189010Y1767730D01*
X1174530D01*
G01X1189010D02*
X1198660Y1774080D01*
X1206700Y1784660D01*
X1209920Y1797370D01*
X1206700Y1810070D01*
X1198660Y1820650D01*
X1184180Y1827000D01*
X1169710Y1824880D01*
X1155230Y1816420D01*
G01X1016080Y2100000D02*
Y2227000D01*
X1056290D01*
X1069160Y2220650D01*
X1077200Y2212180D01*
X1080420Y2195250D01*
X1077200Y2178320D01*
X1067550Y2167730D01*
X1056290Y2161380D01*
X1016080D01*
G01X1056290D02*
X1080420Y2100000D01*
G01X1177750D02*
Y2227000D01*
X1158450Y2201600D01*
G01Y2100000D02*
X1197050D01*
G01X1276690Y2205830D02*
X1286340Y2218530D01*
X1297600Y2224880D01*
X1310470Y2227000D01*
X1326550Y2222770D01*
X1337810Y2212180D01*
X1341030Y2199490D01*
X1339420Y2186780D01*
X1332980Y2176200D01*
X1300820Y2155030D01*
X1286340Y2140220D01*
X1276690Y2119050D01*
X1273470Y2100000D01*
X1341030D01*
G01X1016080Y2700000D02*
Y2827000D01*
X1056290D01*
X1069160Y2820650D01*
X1077200Y2812180D01*
X1080420Y2795250D01*
X1077200Y2778320D01*
X1067550Y2767730D01*
X1056290Y2761380D01*
X1016080D01*
G01X1056290D02*
X1080420Y2700000D01*
G01X1177750D02*
Y2827000D01*
X1158450Y2801600D01*
G01Y2700000D02*
X1197050D01*
G01X1307250D02*
Y2827000D01*
X1287950Y2801600D01*
G01Y2700000D02*
X1326550D01*
G01X1016080Y2400000D02*
Y2527000D01*
X1056290D01*
X1069160Y2520650D01*
X1077200Y2512180D01*
X1080420Y2495250D01*
X1077200Y2478320D01*
X1067550Y2467730D01*
X1056290Y2461380D01*
X1016080D01*
G01X1056290D02*
X1080420Y2400000D01*
G01X1177750D02*
Y2527000D01*
X1158450Y2501600D01*
G01Y2400000D02*
X1197050D01*
G01X1271870Y2425400D02*
X1281510Y2410580D01*
X1294380Y2402120D01*
X1308860Y2400000D01*
X1321730Y2402120D01*
X1334590Y2412700D01*
X1342630Y2425400D01*
X1344240Y2438100D01*
X1341030Y2452910D01*
X1329770Y2463500D01*
X1318510Y2467730D01*
X1304030D01*
G01X1318510D02*
X1328160Y2474080D01*
X1336200Y2484660D01*
X1339420Y2497370D01*
X1336200Y2510070D01*
X1328160Y2520650D01*
X1313680Y2527000D01*
X1299210Y2524880D01*
X1284730Y2516420D01*
G01X847790Y2953740D02*
Y2897310D01*
X851680Y2885500D01*
X859470Y2877620D01*
X869210Y2875000D01*
X878950Y2877620D01*
X886740Y2885500D01*
X890630Y2897310D01*
Y2953740D01*
G01X947950Y2875000D02*
Y2953740D01*
X936270Y2937990D01*
G01Y2875000D02*
X959630D01*
G01X1026690D02*
Y2953740D01*
X1015010Y2937990D01*
G01Y2875000D02*
X1038370D01*
G01X1623000Y-2937130D02*
X1714020D01*
X1733070Y-2930700D01*
X1745770Y-2917830D01*
X1750000Y-2901740D01*
X1745770Y-2885650D01*
X1733070Y-2872780D01*
X1714020Y-2866350D01*
X1623000D01*
G01X1724600Y-2807590D02*
X1739420Y-2797940D01*
X1747880Y-2785070D01*
X1750000Y-2770590D01*
X1747880Y-2757720D01*
X1737300Y-2744850D01*
X1724600Y-2736810D01*
X1711900Y-2735200D01*
X1697090Y-2738420D01*
X1686500Y-2749680D01*
X1682270Y-2760940D01*
Y-2775420D01*
G01Y-2760940D02*
X1675920Y-2751290D01*
X1665340Y-2743240D01*
X1652630Y-2740030D01*
X1639930Y-2743240D01*
X1629350Y-2751290D01*
X1623000Y-2765770D01*
X1625120Y-2780240D01*
X1633580Y-2794720D01*
G01X1466420Y-83630D02*
X1472770Y-73980D01*
X1477000Y-62730D01*
Y-49860D01*
X1470650Y-35380D01*
X1460070Y-24130D01*
X1447370Y-16080D01*
X1426200Y-9650D01*
X1407150Y-8040D01*
X1388100Y-11260D01*
X1375400Y-16080D01*
X1362700Y-25730D01*
X1354230Y-36990D01*
X1350000Y-48250D01*
Y-59510D01*
X1354230Y-70770D01*
X1360580Y-80420D01*
X1369050Y-88460D01*
G01X1350000Y-177750D02*
X1477000D01*
X1451600Y-158450D01*
G01X1350000D02*
Y-197050D01*
G01X1477000Y-307250D02*
X1472770Y-294380D01*
X1462180Y-284730D01*
X1449490Y-278300D01*
X1432550Y-273470D01*
X1413500Y-271870D01*
X1394450Y-273470D01*
X1377510Y-278300D01*
X1364810Y-284730D01*
X1354230Y-294380D01*
X1350000Y-307250D01*
X1354230Y-320120D01*
X1364810Y-329770D01*
X1377510Y-336200D01*
X1394450Y-341030D01*
X1413500Y-342630D01*
X1432550Y-341030D01*
X1449490Y-336200D01*
X1462180Y-329770D01*
X1472770Y-320120D01*
X1477000Y-307250D01*
G01X1333630Y166420D02*
X1323980Y172770D01*
X1312730Y177000D01*
X1299860D01*
X1285380Y170650D01*
X1274130Y160070D01*
X1266080Y147370D01*
X1259650Y126200D01*
X1258040Y107150D01*
X1261260Y88100D01*
X1266080Y75400D01*
X1275730Y62700D01*
X1286990Y54230D01*
X1298250Y50000D01*
X1309510D01*
X1320770Y54230D01*
X1330420Y60580D01*
X1338460Y69050D01*
G01X1392370D02*
X1402010Y58460D01*
X1413270Y52120D01*
X1427750Y50000D01*
X1442230Y54230D01*
X1453480Y62700D01*
X1461530Y77510D01*
X1463130Y94450D01*
X1459920Y111380D01*
X1451870Y121970D01*
X1440620Y130430D01*
X1429360Y132550D01*
X1418100Y130430D01*
X1403630Y121970D01*
X1408450Y177000D01*
X1451870D01*
G01X1466420Y666370D02*
X1472770Y676020D01*
X1477000Y687270D01*
Y700140D01*
X1470650Y714620D01*
X1460070Y725870D01*
X1447370Y733920D01*
X1426200Y740350D01*
X1407150Y741960D01*
X1388100Y738740D01*
X1375400Y733920D01*
X1362700Y724270D01*
X1354230Y713010D01*
X1350000Y701750D01*
Y690490D01*
X1354230Y679230D01*
X1360580Y669580D01*
X1369050Y661540D01*
G01X1350000Y572250D02*
X1477000D01*
X1451600Y591550D01*
G01X1350000D02*
Y552950D01*
G01Y442750D02*
X1477000D01*
X1451600Y462050D01*
G01X1350000D02*
Y423450D01*
G01X1333630Y366420D02*
X1323980Y372770D01*
X1312730Y377000D01*
X1299860D01*
X1285380Y370650D01*
X1274130Y360070D01*
X1266080Y347370D01*
X1259650Y326200D01*
X1258040Y307150D01*
X1261260Y288100D01*
X1266080Y275400D01*
X1275730Y262700D01*
X1286990Y254230D01*
X1298250Y250000D01*
X1309510D01*
X1320770Y254230D01*
X1330420Y260580D01*
X1338460Y269050D01*
G01X1424530Y250000D02*
X1427750Y277510D01*
X1432580Y300800D01*
X1439010Y321970D01*
X1447050Y345250D01*
X1459920Y377000D01*
X1395580D01*
G01X1308760Y1000000D02*
X1349660Y1078740D01*
G01X1308760D02*
X1349660Y1000000D01*
G01X1407950D02*
Y1078740D01*
X1396270Y1062990D01*
G01Y1000000D02*
X1419630D01*
G01X1569080Y2301500D02*
Y2428500D01*
X1609290D01*
X1622160Y2422150D01*
X1630200Y2413680D01*
X1633420Y2396750D01*
X1630200Y2379820D01*
X1620550Y2369230D01*
X1609290Y2362880D01*
X1569080D01*
G01X1609290D02*
X1633420Y2301500D01*
G01X1700190Y2407330D02*
X1709840Y2420030D01*
X1721100Y2426380D01*
X1733970Y2428500D01*
X1750050Y2424270D01*
X1761310Y2413680D01*
X1764530Y2400990D01*
X1762920Y2388280D01*
X1756480Y2377700D01*
X1724320Y2356530D01*
X1709840Y2341720D01*
X1700190Y2320550D01*
X1696970Y2301500D01*
X1764530D01*
G01X1569080Y2601500D02*
Y2728500D01*
X1609290D01*
X1622160Y2722150D01*
X1630200Y2713680D01*
X1633420Y2696750D01*
X1630200Y2679820D01*
X1620550Y2669230D01*
X1609290Y2662880D01*
X1569080D01*
G01X1609290D02*
X1633420Y2601500D01*
G01X1730750D02*
Y2728500D01*
X1711450Y2703100D01*
G01Y2601500D02*
X1750050D01*
G01X1773000Y1862870D02*
X1864020D01*
X1883070Y1869300D01*
X1895770Y1882170D01*
X1900000Y1898260D01*
X1895770Y1914350D01*
X1883070Y1927220D01*
X1864020Y1933650D01*
X1773000D01*
G01X1880950Y1992410D02*
X1891540Y2002060D01*
X1897880Y2013320D01*
X1900000Y2027800D01*
X1895770Y2042280D01*
X1887300Y2053540D01*
X1872490Y2061580D01*
X1855550Y2063190D01*
X1838620Y2059970D01*
X1828030Y2051930D01*
X1819570Y2040670D01*
X1817450Y2029410D01*
X1819570Y2018150D01*
X1828030Y2003670D01*
X1773000Y2008500D01*
Y2051930D01*
G01X2450000Y1754270D02*
X2416500D01*
Y1764960D01*
X2418180Y1768380D01*
X2420410Y1770510D01*
X2424880Y1771370D01*
X2429340Y1770510D01*
X2432130Y1767950D01*
X2433810Y1764960D01*
Y1754270D01*
G01Y1764960D02*
X2450000Y1771370D01*
G01Y1793870D02*
X2416500D01*
X2450000Y1813530D01*
X2416500D01*
G01X2450000Y1844580D02*
X2416500D01*
X2423200Y1839450D01*
G01X2450000D02*
Y1849710D01*
G01X2850000Y-1861770D02*
X2883500D01*
Y-1872460D01*
X2881820Y-1875880D01*
X2879590Y-1878010D01*
X2875120Y-1878870D01*
X2870660Y-1878010D01*
X2867870Y-1875450D01*
X2866190Y-1872460D01*
Y-1861770D01*
G01Y-1872460D02*
X2850000Y-1878870D01*
G01Y-1901370D02*
X2883500D01*
X2850000Y-1921030D01*
X2883500D01*
G01X2856700Y-1942680D02*
X2852790Y-1945240D01*
X2850560Y-1948660D01*
X2850000Y-1952510D01*
X2850560Y-1955930D01*
X2853350Y-1959350D01*
X2856700Y-1961480D01*
X2860050Y-1961910D01*
X2863960Y-1961050D01*
X2866750Y-1958060D01*
X2867870Y-1955070D01*
Y-1951230D01*
G01Y-1955070D02*
X2869540Y-1957640D01*
X2872330Y-1959770D01*
X2875680Y-1960630D01*
X2879030Y-1959770D01*
X2881820Y-1957640D01*
X2883500Y-1953790D01*
X2882940Y-1949940D01*
X2880710Y-1946100D01*
G54D11*
G01X1833070Y-1785520D02*
X1843650Y-1772650D01*
X1850000Y-1758170D01*
Y-1745310D01*
X1843650Y-1732440D01*
X1833070Y-1722780D01*
X1818250Y-1717960D01*
X1803440Y-1721170D01*
X1790730Y-1729220D01*
X1782270Y-1743700D01*
X1778030Y-1763000D01*
X1769570Y-1774260D01*
X1754750Y-1779090D01*
X1739930Y-1775870D01*
X1729350Y-1767830D01*
X1723000Y-1756570D01*
Y-1745310D01*
X1727230Y-1734040D01*
X1737820Y-1724390D01*
G01X1723000Y-1670460D02*
X1850000Y-1647940D01*
X1723000Y-1622200D01*
X1850000Y-1596460D01*
X1723000Y-1573940D01*
G01X1744170Y-1523230D02*
X1731470Y-1513570D01*
X1725120Y-1502310D01*
X1723000Y-1489440D01*
X1727230Y-1473360D01*
X1737820Y-1462090D01*
X1750510Y-1458880D01*
X1763220Y-1460490D01*
X1773800Y-1466920D01*
X1794970Y-1499090D01*
X1809780Y-1513570D01*
X1830950Y-1523230D01*
X1850000Y-1526440D01*
Y-1458880D01*
G01X1833070Y-485520D02*
X1843650Y-472650D01*
X1850000Y-458170D01*
Y-445310D01*
X1843650Y-432440D01*
X1833070Y-422780D01*
X1818250Y-417960D01*
X1803440Y-421170D01*
X1790730Y-429220D01*
X1782270Y-443700D01*
X1778030Y-463000D01*
X1769570Y-474260D01*
X1754750Y-479090D01*
X1739930Y-475870D01*
X1729350Y-467830D01*
X1723000Y-456570D01*
Y-445310D01*
X1727230Y-434040D01*
X1737820Y-424390D01*
G01X1723000Y-370460D02*
X1850000Y-347940D01*
X1723000Y-322200D01*
X1850000Y-296460D01*
X1723000Y-273940D01*
G01X1850000Y-192660D02*
X1723000D01*
X1748400Y-211960D01*
G01X1850000D02*
Y-173360D01*
G54D12*
G01X1320000Y1800000D02*
Y980000D01*
X2060000D01*
G01X2080000Y1000000D02*
Y1800000D01*
X1320000D01*
G01X2080000Y1000000D02*
Y980000D01*
X2060000D01*
G01X1940000Y1720000D02*
X2000000D01*
X2080000Y1800000D01*
X1840000D01*
X1920000Y1720000D01*
X1940000D01*
G54D13*
G01X-2500000Y-950000D02*
X-2584660D01*
G01X-2561380D02*
X-2571970Y-945180D01*
X-2580430Y-937130D01*
X-2584660Y-925870D01*
X-2580430Y-914610D01*
X-2571970Y-906570D01*
X-2561380Y-901740D01*
X-2500000D01*
G01X-2561380D02*
X-2571970Y-896910D01*
X-2580430Y-888870D01*
X-2584660Y-877610D01*
X-2580430Y-866350D01*
X-2571970Y-858300D01*
X-2559270Y-853480D01*
X-2500000D01*
G01Y-772200D02*
X-2502120Y-781850D01*
X-2510580Y-791500D01*
X-2525400Y-797940D01*
X-2542330Y-801160D01*
X-2559270Y-797940D01*
X-2574080Y-791500D01*
X-2582550Y-781850D01*
X-2584660Y-772200D01*
X-2582550Y-762550D01*
X-2574080Y-752900D01*
X-2559270Y-746460D01*
X-2542330Y-744850D01*
X-2525400Y-746460D01*
X-2510580Y-752900D01*
X-2502120Y-762550D01*
X-2500000Y-772200D01*
G01Y-671620D02*
X-2627000D01*
G01X-2563500D02*
X-2576200Y-663570D01*
X-2582550Y-653920D01*
X-2584660Y-644270D01*
X-2580430Y-629790D01*
X-2571970Y-620140D01*
X-2557150Y-613700D01*
X-2540220D01*
X-2523280Y-616920D01*
X-2510580Y-623360D01*
X-2502120Y-634620D01*
X-2500000Y-644270D01*
X-2502120Y-653920D01*
X-2508460Y-663570D01*
X-2519050Y-671620D01*
G01X-2584660Y-513120D02*
X-2500000D01*
G01X-2618530D02*
X-2620650Y-516340D01*
X-2624880D01*
X-2627000Y-513120D01*
X-2624880Y-509900D01*
X-2620650D01*
X-2618530Y-513120D01*
G01X-2584660Y-410930D02*
X-2525400D01*
X-2510580Y-404490D01*
X-2502120Y-394840D01*
X-2500000Y-383580D01*
X-2502120Y-372320D01*
X-2510580Y-362670D01*
X-2525400Y-356230D01*
G01X-2500000D02*
X-2584660D01*
G01X-2514810Y-278170D02*
X-2506350Y-270130D01*
X-2500000Y-258870D01*
Y-249210D01*
X-2504230Y-239560D01*
X-2510580Y-233130D01*
X-2519050Y-229910D01*
X-2531750Y-231520D01*
X-2538100Y-237950D01*
X-2550800Y-266910D01*
X-2565620Y-273340D01*
X-2576200Y-270130D01*
X-2582550Y-263690D01*
X-2584660Y-254040D01*
X-2582550Y-244390D01*
X-2576200Y-234740D01*
G01X-2495770Y-124500D02*
X-2497880Y-127720D01*
X-2502120D01*
X-2504230Y-124500D01*
X-2502120Y-121280D01*
X-2497880D01*
X-2495770Y-124500D01*
G01X-2584660Y5040D02*
X-2500000D01*
G01X-2618530D02*
X-2620650Y1820D01*
X-2624880D01*
X-2627000Y5040D01*
X-2624880Y8260D01*
X-2620650D01*
X-2618530Y5040D01*
G01X-2500000Y134580D02*
X-2502120Y124930D01*
X-2510580Y115280D01*
X-2525400Y108840D01*
X-2542330Y105620D01*
X-2559270Y108840D01*
X-2574080Y115280D01*
X-2582550Y124930D01*
X-2584660Y134580D01*
X-2582550Y144230D01*
X-2574080Y153880D01*
X-2559270Y160320D01*
X-2542330Y161930D01*
X-2525400Y160320D01*
X-2510580Y153880D01*
X-2502120Y144230D01*
X-2500000Y134580D01*
G01X-2495770Y235160D02*
X-2627000Y293080D01*
G01X-2500000Y366310D02*
X-2627000D01*
G01X-2565620D02*
X-2576200Y374360D01*
X-2582550Y382400D01*
X-2584660Y395270D01*
X-2582550Y404920D01*
X-2574080Y416180D01*
X-2561380Y421010D01*
X-2500000D01*
G01Y523200D02*
X-2502120Y513550D01*
X-2510580Y503900D01*
X-2525400Y497460D01*
X-2542330Y494240D01*
X-2559270Y497460D01*
X-2574080Y503900D01*
X-2582550Y513550D01*
X-2584660Y523200D01*
X-2582550Y532850D01*
X-2574080Y542500D01*
X-2559270Y548940D01*
X-2542330Y550550D01*
X-2525400Y548940D01*
X-2510580Y542500D01*
X-2502120Y532850D01*
X-2500000Y523200D01*
G01X-2627000Y652740D02*
X-2500000D01*
G01X-2584660Y630220D02*
Y675260D01*
G01X-2457670Y753320D02*
X-2584660D01*
G01X-2565620D02*
X-2576200Y761370D01*
X-2582550Y769410D01*
X-2584660Y782280D01*
X-2582550Y793540D01*
X-2571970Y804800D01*
X-2557150Y809630D01*
X-2542330Y811240D01*
X-2527510Y809630D01*
X-2512700Y804800D01*
X-2504230Y795150D01*
X-2500000Y782280D01*
X-2502120Y771020D01*
X-2508460Y759760D01*
X-2516930Y753320D01*
G01X-2584660Y911820D02*
X-2500000D01*
G01X-2618530D02*
X-2620650Y908600D01*
X-2624880D01*
X-2627000Y911820D01*
X-2624880Y915040D01*
X-2620650D01*
X-2618530Y911820D01*
G01X-2584660Y1017230D02*
X-2500000Y1065490D01*
G01X-2584660D02*
X-2500000Y1017230D01*
G01X-2557150Y1146770D02*
Y1198250D01*
X-2571970Y1193420D01*
X-2580430Y1185380D01*
X-2584660Y1174120D01*
X-2582550Y1162860D01*
X-2576200Y1153200D01*
X-2561380Y1146770D01*
X-2548680Y1143550D01*
X-2535980D01*
X-2523280Y1146770D01*
X-2510580Y1154810D01*
X-2502120Y1164470D01*
X-2500000Y1175730D01*
X-2504230Y1186990D01*
X-2516930Y1198250D01*
G01X-2500000Y1300440D02*
X-2627000D01*
G01X-1583910Y1775400D02*
X-1575870Y1762700D01*
X-1566220Y1754230D01*
X-1554960Y1750000D01*
X-1542090Y1754230D01*
X-1532440Y1762700D01*
X-1522780Y1775400D01*
X-1519570Y1792330D01*
Y1877000D01*
G01X-1457590Y1775400D02*
X-1447940Y1760580D01*
X-1435070Y1752120D01*
X-1420590Y1750000D01*
X-1407720Y1752120D01*
X-1394850Y1762700D01*
X-1386810Y1775400D01*
X-1385200Y1788100D01*
X-1388420Y1802910D01*
X-1399680Y1813500D01*
X-1410940Y1817730D01*
X-1425420D01*
G01X-1410940D02*
X-1401290Y1824080D01*
X-1393240Y1834660D01*
X-1390030Y1847370D01*
X-1393240Y1860070D01*
X-1401290Y1870650D01*
X-1415770Y1877000D01*
X-1430240Y1874880D01*
X-1444720Y1866420D01*
G01X-1340000Y2000000D02*
X-1270000Y2060000D01*
Y1940000D01*
X-1340000Y2000000D01*
X-1330000D01*
G01X-940000D02*
X-870000Y2060000D01*
Y1940000D01*
X-940000Y2000000D01*
X-930000D01*
G01X800000Y2920000D02*
Y1500000D01*
X-600000D01*
Y3020000D01*
X-155000D01*
Y2925000D01*
X-160000Y2920000D01*
X800000D01*
G01X1203060Y-474600D02*
X1211100Y-487300D01*
X1220750Y-495770D01*
X1232010Y-500000D01*
X1244880Y-495770D01*
X1254530Y-487300D01*
X1264190Y-474600D01*
X1267400Y-457670D01*
Y-373000D01*
G01X1384070Y-500000D02*
Y-373000D01*
X1324550Y-464020D01*
X1404990D01*
G01X903060Y-474600D02*
X911100Y-487300D01*
X920750Y-495770D01*
X932010Y-500000D01*
X944880Y-495770D01*
X954530Y-487300D01*
X964190Y-474600D01*
X967400Y-457670D01*
Y-373000D01*
G01X1029380Y-480950D02*
X1039030Y-491540D01*
X1050290Y-497880D01*
X1064770Y-500000D01*
X1079250Y-495770D01*
X1090510Y-487300D01*
X1098550Y-472490D01*
X1100160Y-455550D01*
X1096940Y-438620D01*
X1088900Y-428030D01*
X1077640Y-419570D01*
X1066380Y-417450D01*
X1055120Y-419570D01*
X1040640Y-428030D01*
X1045470Y-373000D01*
X1088900D01*
G54D14*
G01X-2220790Y-2521260D02*
Y-2600000D01*
G01X-2243180Y-2521260D02*
X-2198400D01*
G01X-2161520Y-2600000D02*
Y-2521260D01*
X-2138160D01*
X-2130370Y-2525200D01*
X-2124520Y-2534380D01*
X-2122580Y-2544880D01*
X-2124520Y-2555380D01*
X-2129390Y-2563260D01*
X-2138160Y-2567190D01*
X-2161520D01*
G01X-2063310Y-2600000D02*
Y-2521260D01*
X-2074990Y-2537010D01*
G01Y-2600000D02*
X-2051630D01*
G01X-1984570D02*
X-1977750Y-2598690D01*
X-1969970Y-2594750D01*
X-1965100Y-2588190D01*
X-1963150Y-2579000D01*
X-1965100Y-2569820D01*
X-1970940Y-2561940D01*
X-1979700Y-2558000D01*
X-1989440D01*
X-1995280Y-2555380D01*
X-2000150Y-2548820D01*
X-2002100Y-2539630D01*
X-1999170Y-2530450D01*
X-1992360Y-2523880D01*
X-1984570Y-2521260D01*
X-1976780Y-2523880D01*
X-1969970Y-2530450D01*
X-1967040Y-2539630D01*
X-1968990Y-2548820D01*
X-1973860Y-2555380D01*
X-1979700Y-2558000D01*
X-1989440D01*
X-1998200Y-2561940D01*
X-2004040Y-2569820D01*
X-2005990Y-2579000D01*
X-2004040Y-2588190D01*
X-1999170Y-2594750D01*
X-1991390Y-2598690D01*
X-1984570Y-2600000D01*
G01X-1870790Y-2521260D02*
Y-2600000D01*
G01X-1893180Y-2521260D02*
X-1848400D01*
G01X-1811520Y-2600000D02*
Y-2521260D01*
X-1788160D01*
X-1780370Y-2525200D01*
X-1774520Y-2534380D01*
X-1772580Y-2544880D01*
X-1774520Y-2555380D01*
X-1779390Y-2563260D01*
X-1788160Y-2567190D01*
X-1811520D01*
G01X-1713310Y-2600000D02*
Y-2521260D01*
X-1724990Y-2537010D01*
G01Y-2600000D02*
X-1701630D01*
G01X-1651120Y-2590820D02*
X-1644310Y-2597380D01*
X-1636520Y-2600000D01*
X-1628730Y-2597380D01*
X-1621910Y-2589500D01*
X-1617040Y-2577690D01*
X-1615100Y-2565880D01*
Y-2551440D01*
X-1617040Y-2539630D01*
X-1621910Y-2529130D01*
X-1627750Y-2523880D01*
X-1634570Y-2521260D01*
X-1642360Y-2523880D01*
X-1648200Y-2529130D01*
X-1652100Y-2537010D01*
X-1654040Y-2547510D01*
X-1652100Y-2556690D01*
X-1647230Y-2565880D01*
X-1641390Y-2571130D01*
X-1634570Y-2572440D01*
X-1626780Y-2569820D01*
X-1620940Y-2563260D01*
X-1615100Y-2551440D01*
G01X-1770790Y-1921260D02*
Y-2000000D01*
G01X-1793180Y-1921260D02*
X-1748400D01*
G01X-1711520Y-2000000D02*
Y-1921260D01*
X-1688160D01*
X-1680370Y-1925200D01*
X-1674520Y-1934380D01*
X-1672580Y-1944880D01*
X-1674520Y-1955380D01*
X-1679390Y-1963260D01*
X-1688160Y-1967190D01*
X-1711520D01*
G01X-1613310Y-2000000D02*
Y-1921260D01*
X-1624990Y-1937010D01*
G01Y-2000000D02*
X-1601630D01*
G01X-1770790Y-1571260D02*
Y-1650000D01*
G01X-1793180Y-1571260D02*
X-1748400D01*
G01X-1711520Y-1650000D02*
Y-1571260D01*
X-1688160D01*
X-1680370Y-1575200D01*
X-1674520Y-1584380D01*
X-1672580Y-1594880D01*
X-1674520Y-1605380D01*
X-1679390Y-1613260D01*
X-1688160Y-1617190D01*
X-1711520D01*
G01X-1613310Y-1650000D02*
Y-1571260D01*
X-1624990Y-1587010D01*
G01Y-1650000D02*
X-1601630D01*
G01X-1522890D02*
Y-1571260D01*
X-1558910Y-1627690D01*
X-1510230D01*
G01X-1721260Y-1029210D02*
X-1800000D01*
G01X-1721260Y-1006820D02*
Y-1051600D01*
G01X-1800000Y-1088480D02*
X-1721260D01*
Y-1111840D01*
X-1725200Y-1119630D01*
X-1734380Y-1125480D01*
X-1744880Y-1127420D01*
X-1755380Y-1125480D01*
X-1763260Y-1120610D01*
X-1767190Y-1111840D01*
Y-1088480D01*
G01X-1734380Y-1168190D02*
X-1726510Y-1174030D01*
X-1722570Y-1180850D01*
X-1721260Y-1188640D01*
X-1723880Y-1198370D01*
X-1730450Y-1205190D01*
X-1738320Y-1207140D01*
X-1746200Y-1206160D01*
X-1752760Y-1202270D01*
X-1765880Y-1182800D01*
X-1775070Y-1174030D01*
X-1788190Y-1168190D01*
X-1800000Y-1166240D01*
Y-1207140D01*
G01X-1788190Y-1244010D02*
X-1794750Y-1249850D01*
X-1798690Y-1256670D01*
X-1800000Y-1265430D01*
X-1797380Y-1274190D01*
X-1792130Y-1281010D01*
X-1782940Y-1285880D01*
X-1772440Y-1286850D01*
X-1761940Y-1284900D01*
X-1755380Y-1280030D01*
X-1750130Y-1273220D01*
X-1748820Y-1266400D01*
X-1750130Y-1259590D01*
X-1755380Y-1250830D01*
X-1721260Y-1253750D01*
Y-1280030D01*
G01X-1521260Y-1029210D02*
X-1600000D01*
G01X-1521260Y-1006820D02*
Y-1051600D01*
G01X-1600000Y-1088480D02*
X-1521260D01*
Y-1111840D01*
X-1525200Y-1119630D01*
X-1534380Y-1125480D01*
X-1544880Y-1127420D01*
X-1555380Y-1125480D01*
X-1563260Y-1120610D01*
X-1567190Y-1111840D01*
Y-1088480D01*
G01X-1534380Y-1168190D02*
X-1526510Y-1174030D01*
X-1522570Y-1180850D01*
X-1521260Y-1188640D01*
X-1523880Y-1198370D01*
X-1530450Y-1205190D01*
X-1538320Y-1207140D01*
X-1546200Y-1206160D01*
X-1552760Y-1202270D01*
X-1565880Y-1182800D01*
X-1575070Y-1174030D01*
X-1588190Y-1168190D01*
X-1600000Y-1166240D01*
Y-1207140D01*
G01Y-1277110D02*
X-1521260D01*
X-1577690Y-1241090D01*
Y-1289770D01*
G01X-1878740Y-570790D02*
X-1800000D01*
G01X-1878740Y-593180D02*
Y-548400D01*
G01X-1800000Y-511520D02*
X-1878740D01*
Y-488160D01*
X-1874800Y-480370D01*
X-1865620Y-474520D01*
X-1855120Y-472580D01*
X-1844620Y-474520D01*
X-1836740Y-479390D01*
X-1832810Y-488160D01*
Y-511520D01*
G01X-1865620Y-431810D02*
X-1873490Y-425970D01*
X-1877430Y-419150D01*
X-1878740Y-411360D01*
X-1876120Y-401630D01*
X-1869550Y-394810D01*
X-1861680Y-392860D01*
X-1853800Y-393840D01*
X-1847240Y-397730D01*
X-1834120Y-417200D01*
X-1824930Y-425970D01*
X-1811810Y-431810D01*
X-1800000Y-433760D01*
Y-392860D01*
G01X-1809180Y-351120D02*
X-1802620Y-344310D01*
X-1800000Y-336520D01*
X-1802620Y-328730D01*
X-1810500Y-321910D01*
X-1822310Y-317040D01*
X-1834120Y-315100D01*
X-1848560D01*
X-1860370Y-317040D01*
X-1870870Y-321910D01*
X-1876120Y-327750D01*
X-1878740Y-334570D01*
X-1876120Y-342360D01*
X-1870870Y-348200D01*
X-1862990Y-352100D01*
X-1852490Y-354040D01*
X-1843310Y-352100D01*
X-1834120Y-347230D01*
X-1828870Y-341390D01*
X-1827560Y-334570D01*
X-1830180Y-326780D01*
X-1836740Y-320940D01*
X-1848560Y-315100D01*
G01X-1678740Y-570790D02*
X-1600000D01*
G01X-1678740Y-593180D02*
Y-548400D01*
G01X-1600000Y-511520D02*
X-1678740D01*
Y-488160D01*
X-1674800Y-480370D01*
X-1665620Y-474520D01*
X-1655120Y-472580D01*
X-1644620Y-474520D01*
X-1636740Y-479390D01*
X-1632810Y-488160D01*
Y-511520D01*
G01X-1665620Y-431810D02*
X-1673490Y-425970D01*
X-1677430Y-419150D01*
X-1678740Y-411360D01*
X-1676120Y-401630D01*
X-1669550Y-394810D01*
X-1661680Y-392860D01*
X-1653800Y-393840D01*
X-1647240Y-397730D01*
X-1634120Y-417200D01*
X-1624930Y-425970D01*
X-1611810Y-431810D01*
X-1600000Y-433760D01*
Y-392860D01*
G01Y-334570D02*
X-1601310Y-327750D01*
X-1605250Y-319970D01*
X-1611810Y-315100D01*
X-1621000Y-313150D01*
X-1630180Y-315100D01*
X-1638060Y-320940D01*
X-1642000Y-329700D01*
Y-339440D01*
X-1644620Y-345280D01*
X-1651180Y-350150D01*
X-1660370Y-352100D01*
X-1669550Y-349170D01*
X-1676120Y-342360D01*
X-1678740Y-334570D01*
X-1676120Y-326780D01*
X-1669550Y-319970D01*
X-1660370Y-317040D01*
X-1651180Y-318990D01*
X-1644620Y-323860D01*
X-1642000Y-329700D01*
Y-339440D01*
X-1638060Y-348200D01*
X-1630180Y-354040D01*
X-1621000Y-355990D01*
X-1611810Y-354040D01*
X-1605250Y-349170D01*
X-1601310Y-341390D01*
X-1600000Y-334570D01*
G01X-1478740Y-570790D02*
X-1400000D01*
G01X-1478740Y-593180D02*
Y-548400D01*
G01X-1400000Y-511520D02*
X-1478740D01*
Y-488160D01*
X-1474800Y-480370D01*
X-1465620Y-474520D01*
X-1455120Y-472580D01*
X-1444620Y-474520D01*
X-1436740Y-479390D01*
X-1432810Y-488160D01*
Y-511520D01*
G01X-1465620Y-431810D02*
X-1473490Y-425970D01*
X-1477430Y-419150D01*
X-1478740Y-411360D01*
X-1476120Y-401630D01*
X-1469550Y-394810D01*
X-1461680Y-392860D01*
X-1453800Y-393840D01*
X-1447240Y-397730D01*
X-1434120Y-417200D01*
X-1424930Y-425970D01*
X-1411810Y-431810D01*
X-1400000Y-433760D01*
Y-392860D01*
G01Y-336520D02*
X-1417060Y-334570D01*
X-1431490Y-331650D01*
X-1444620Y-327750D01*
X-1459050Y-322890D01*
X-1478740Y-315100D01*
Y-354040D01*
G01X-1870790Y778740D02*
Y700000D01*
G01X-1893180Y778740D02*
X-1848400D01*
G01X-1811520Y700000D02*
Y778740D01*
X-1788160D01*
X-1780370Y774800D01*
X-1774520Y765620D01*
X-1772580Y755120D01*
X-1774520Y744620D01*
X-1779390Y736740D01*
X-1788160Y732810D01*
X-1811520D01*
G01X-1713310Y700000D02*
Y778740D01*
X-1724990Y762990D01*
G01Y700000D02*
X-1701630D01*
G01X-1653070Y732810D02*
X-1646250Y742000D01*
X-1640410Y747240D01*
X-1632620Y749870D01*
X-1625810Y747240D01*
X-1620940Y742000D01*
X-1617040Y734120D01*
X-1616070Y724930D01*
X-1617040Y717060D01*
X-1620940Y709180D01*
X-1626780Y702620D01*
X-1633600Y700000D01*
X-1641390Y702620D01*
X-1648200Y710500D01*
X-1652100Y722310D01*
X-1653070Y735430D01*
X-1651120Y752490D01*
X-1648200Y761680D01*
X-1643330Y770870D01*
X-1636520Y777430D01*
X-1629700Y778740D01*
X-1622890Y776120D01*
X-1618020Y769550D01*
G01X-1321260Y-1029210D02*
X-1400000D01*
G01X-1321260Y-1006820D02*
Y-1051600D01*
G01X-1400000Y-1088480D02*
X-1321260D01*
Y-1111840D01*
X-1325200Y-1119630D01*
X-1334380Y-1125480D01*
X-1344880Y-1127420D01*
X-1355380Y-1125480D01*
X-1363260Y-1120610D01*
X-1367190Y-1111840D01*
Y-1088480D01*
G01X-1334380Y-1168190D02*
X-1326510Y-1174030D01*
X-1322570Y-1180850D01*
X-1321260Y-1188640D01*
X-1323880Y-1198370D01*
X-1330450Y-1205190D01*
X-1338320Y-1207140D01*
X-1346200Y-1206160D01*
X-1352760Y-1202270D01*
X-1365880Y-1182800D01*
X-1375070Y-1174030D01*
X-1388190Y-1168190D01*
X-1400000Y-1166240D01*
Y-1207140D01*
G01X-1384250Y-1244010D02*
X-1393440Y-1249850D01*
X-1398690Y-1257640D01*
X-1400000Y-1266400D01*
X-1398690Y-1274190D01*
X-1392130Y-1281980D01*
X-1384250Y-1286850D01*
X-1376380Y-1287820D01*
X-1367190Y-1285880D01*
X-1360630Y-1279060D01*
X-1358000Y-1272250D01*
Y-1263480D01*
G01Y-1272250D02*
X-1354070Y-1278090D01*
X-1347510Y-1282960D01*
X-1339630Y-1284900D01*
X-1331760Y-1282960D01*
X-1325200Y-1278090D01*
X-1321260Y-1269320D01*
X-1322570Y-1260560D01*
X-1327820Y-1251800D01*
G01X-1121260Y-1029210D02*
X-1200000D01*
G01X-1121260Y-1006820D02*
Y-1051600D01*
G01X-1200000Y-1088480D02*
X-1121260D01*
Y-1111840D01*
X-1125200Y-1119630D01*
X-1134380Y-1125480D01*
X-1144880Y-1127420D01*
X-1155380Y-1125480D01*
X-1163260Y-1120610D01*
X-1167190Y-1111840D01*
Y-1088480D01*
G01X-1134380Y-1168190D02*
X-1126510Y-1174030D01*
X-1122570Y-1180850D01*
X-1121260Y-1188640D01*
X-1123880Y-1198370D01*
X-1130450Y-1205190D01*
X-1138320Y-1207140D01*
X-1146200Y-1206160D01*
X-1152760Y-1202270D01*
X-1165880Y-1182800D01*
X-1175070Y-1174030D01*
X-1188190Y-1168190D01*
X-1200000Y-1166240D01*
Y-1207140D01*
G01X-1134380Y-1246930D02*
X-1126510Y-1252770D01*
X-1122570Y-1259590D01*
X-1121260Y-1267380D01*
X-1123880Y-1277110D01*
X-1130450Y-1283930D01*
X-1138320Y-1285880D01*
X-1146200Y-1284900D01*
X-1152760Y-1281010D01*
X-1165880Y-1261540D01*
X-1175070Y-1252770D01*
X-1188190Y-1246930D01*
X-1200000Y-1244980D01*
Y-1285880D01*
G01X-1278740Y-570790D02*
X-1200000D01*
G01X-1278740Y-593180D02*
Y-548400D01*
G01X-1200000Y-511520D02*
X-1278740D01*
Y-488160D01*
X-1274800Y-480370D01*
X-1265620Y-474520D01*
X-1255120Y-472580D01*
X-1244620Y-474520D01*
X-1236740Y-479390D01*
X-1232810Y-488160D01*
Y-511520D01*
G01X-1265620Y-431810D02*
X-1273490Y-425970D01*
X-1277430Y-419150D01*
X-1278740Y-411360D01*
X-1276120Y-401630D01*
X-1269550Y-394810D01*
X-1261680Y-392860D01*
X-1253800Y-393840D01*
X-1247240Y-397730D01*
X-1234120Y-417200D01*
X-1224930Y-425970D01*
X-1211810Y-431810D01*
X-1200000Y-433760D01*
Y-392860D01*
G01X-1232810Y-353070D02*
X-1242000Y-346250D01*
X-1247240Y-340410D01*
X-1249870Y-332620D01*
X-1247240Y-325810D01*
X-1242000Y-320940D01*
X-1234120Y-317040D01*
X-1224930Y-316070D01*
X-1217060Y-317040D01*
X-1209180Y-320940D01*
X-1202620Y-326780D01*
X-1200000Y-333600D01*
X-1202620Y-341390D01*
X-1210500Y-348200D01*
X-1222310Y-352100D01*
X-1235430Y-353070D01*
X-1252490Y-351120D01*
X-1261680Y-348200D01*
X-1270870Y-343330D01*
X-1277430Y-336520D01*
X-1278740Y-329700D01*
X-1276120Y-322890D01*
X-1269550Y-318020D01*
G01X-1270790Y1828740D02*
Y1750000D01*
G01X-1293180Y1828740D02*
X-1248400D01*
G01X-1211520Y1750000D02*
Y1828740D01*
X-1188160D01*
X-1180370Y1824800D01*
X-1174520Y1815620D01*
X-1172580Y1805120D01*
X-1174520Y1794620D01*
X-1179390Y1786740D01*
X-1188160Y1782810D01*
X-1211520D01*
G01X-1113310Y1750000D02*
Y1828740D01*
X-1124990Y1812990D01*
G01Y1750000D02*
X-1101630D01*
G01X-1055990Y1765750D02*
X-1050150Y1756560D01*
X-1042360Y1751310D01*
X-1033600Y1750000D01*
X-1025810Y1751310D01*
X-1018020Y1757870D01*
X-1013150Y1765750D01*
X-1012180Y1773620D01*
X-1014120Y1782810D01*
X-1020940Y1789370D01*
X-1027750Y1792000D01*
X-1036520D01*
G01X-1027750D02*
X-1021910Y1795930D01*
X-1017040Y1802490D01*
X-1015100Y1810370D01*
X-1017040Y1818240D01*
X-1021910Y1824800D01*
X-1030680Y1828740D01*
X-1039440Y1827430D01*
X-1048200Y1822180D01*
G01X-920790Y1828740D02*
Y1750000D01*
G01X-943180Y1828740D02*
X-898400D01*
G01X-861520Y1750000D02*
Y1828740D01*
X-838160D01*
X-830370Y1824800D01*
X-824520Y1815620D01*
X-822580Y1805120D01*
X-824520Y1794620D01*
X-829390Y1786740D01*
X-838160Y1782810D01*
X-861520D01*
G01X-763310Y1750000D02*
Y1828740D01*
X-774990Y1812990D01*
G01Y1750000D02*
X-751630D01*
G01X-703070Y1815620D02*
X-697230Y1823490D01*
X-690410Y1827430D01*
X-682620Y1828740D01*
X-672890Y1826120D01*
X-666070Y1819550D01*
X-664120Y1811680D01*
X-665100Y1803800D01*
X-668990Y1797240D01*
X-688460Y1784120D01*
X-697230Y1774930D01*
X-703070Y1761810D01*
X-705020Y1750000D01*
X-664120D01*
G01X-520790Y1378740D02*
Y1300000D01*
G01X-543180Y1378740D02*
X-498400D01*
G01X-461520Y1300000D02*
Y1378740D01*
X-438160D01*
X-430370Y1374800D01*
X-424520Y1365620D01*
X-422580Y1355120D01*
X-424520Y1344620D01*
X-429390Y1336740D01*
X-438160Y1332810D01*
X-461520D01*
G01X-363310Y1300000D02*
Y1378740D01*
X-374990Y1362990D01*
G01Y1300000D02*
X-351630D01*
G01X-284570D02*
Y1378740D01*
X-296250Y1362990D01*
G01Y1300000D02*
X-272890D01*
G01X1479210Y1878740D02*
Y1800000D01*
G01X1456820Y1878740D02*
X1501600D01*
G01X1538480Y1800000D02*
Y1878740D01*
X1561840D01*
X1569630Y1874800D01*
X1575480Y1865620D01*
X1577420Y1855120D01*
X1575480Y1844620D01*
X1570610Y1836740D01*
X1561840Y1832810D01*
X1538480D01*
G01X1618190Y1865620D02*
X1624030Y1873490D01*
X1630850Y1877430D01*
X1638640Y1878740D01*
X1648370Y1876120D01*
X1655190Y1869550D01*
X1657140Y1861680D01*
X1656160Y1853800D01*
X1652270Y1847240D01*
X1632800Y1834120D01*
X1624030Y1824930D01*
X1618190Y1811810D01*
X1616240Y1800000D01*
X1657140D01*
G01X1715430D02*
Y1878740D01*
X1703750Y1862990D01*
G01Y1800000D02*
X1727110D01*
G01X1429210Y2878740D02*
Y2800000D01*
G01X1406820Y2878740D02*
X1451600D01*
G01X1488480Y2800000D02*
Y2878740D01*
X1511840D01*
X1519630Y2874800D01*
X1525480Y2865620D01*
X1527420Y2855120D01*
X1525480Y2844620D01*
X1520610Y2836740D01*
X1511840Y2832810D01*
X1488480D01*
G01X1568190Y2865620D02*
X1574030Y2873490D01*
X1580850Y2877430D01*
X1588640Y2878740D01*
X1598370Y2876120D01*
X1605190Y2869550D01*
X1607140Y2861680D01*
X1606160Y2853800D01*
X1602270Y2847240D01*
X1582800Y2834120D01*
X1574030Y2824930D01*
X1568190Y2811810D01*
X1566240Y2800000D01*
X1607140D01*
G01X1665430Y2878740D02*
X1657640Y2876120D01*
X1651800Y2869550D01*
X1647900Y2861680D01*
X1644980Y2851180D01*
X1644010Y2839370D01*
X1644980Y2827560D01*
X1647900Y2817060D01*
X1651800Y2809180D01*
X1657640Y2802620D01*
X1665430Y2800000D01*
X1673220Y2802620D01*
X1679060Y2809180D01*
X1682960Y2817060D01*
X1685880Y2827560D01*
X1686850Y2839370D01*
X1685880Y2851180D01*
X1682960Y2861680D01*
X1679060Y2869550D01*
X1673220Y2876120D01*
X1665430Y2878740D01*
G01X1979210Y1828740D02*
Y1750000D01*
G01X1956820Y1828740D02*
X2001600D01*
G01X2038480Y1750000D02*
Y1828740D01*
X2061840D01*
X2069630Y1824800D01*
X2075480Y1815620D01*
X2077420Y1805120D01*
X2075480Y1794620D01*
X2070610Y1786740D01*
X2061840Y1782810D01*
X2038480D01*
G01X2136690Y1750000D02*
Y1828740D01*
X2125010Y1812990D01*
G01Y1750000D02*
X2148370D01*
G01X2213480D02*
X2215430Y1767060D01*
X2218350Y1781490D01*
X2222250Y1794620D01*
X2227110Y1809050D01*
X2234900Y1828740D01*
X2195960D01*
G01X2579210Y78740D02*
Y0D01*
G01X2556820Y78740D02*
X2601600D01*
G01X2638480Y0D02*
Y78740D01*
X2661840D01*
X2669630Y74800D01*
X2675480Y65620D01*
X2677420Y55120D01*
X2675480Y44620D01*
X2670610Y36740D01*
X2661840Y32810D01*
X2638480D01*
G01X2736690Y0D02*
Y78740D01*
X2725010Y62990D01*
G01Y0D02*
X2748370D01*
G01X2794010Y11810D02*
X2799850Y5250D01*
X2806670Y1310D01*
X2815430Y0D01*
X2824190Y2620D01*
X2831010Y7870D01*
X2835880Y17060D01*
X2836850Y27560D01*
X2834900Y38060D01*
X2830030Y44620D01*
X2823220Y49870D01*
X2816400Y51180D01*
X2809590Y49870D01*
X2800830Y44620D01*
X2803750Y78740D01*
X2830030D01*
G01X2778740Y920790D02*
X2700000D01*
G01X2778740Y943180D02*
Y898400D01*
G01X2700000Y861520D02*
X2778740D01*
Y838160D01*
X2774800Y830370D01*
X2765620Y824520D01*
X2755120Y822580D01*
X2744620Y824520D01*
X2736740Y829390D01*
X2732810Y838160D01*
Y861520D01*
G01X2715750Y784730D02*
X2706560Y778890D01*
X2701310Y771100D01*
X2700000Y762340D01*
X2701310Y754550D01*
X2707870Y746760D01*
X2715750Y741890D01*
X2723620Y740920D01*
X2732810Y742860D01*
X2739370Y749680D01*
X2742000Y756490D01*
Y765260D01*
G01Y756490D02*
X2745930Y750650D01*
X2752490Y745780D01*
X2760370Y743840D01*
X2768240Y745780D01*
X2774800Y750650D01*
X2778740Y759420D01*
X2777430Y768180D01*
X2772180Y776940D01*
G01X2700000Y684570D02*
X2778740D01*
X2762990Y696250D01*
G01X2700000D02*
Y672890D01*
G01X2628740Y920790D02*
X2550000D01*
G01X2628740Y943180D02*
Y898400D01*
G01X2550000Y861520D02*
X2628740D01*
Y838160D01*
X2624800Y830370D01*
X2615620Y824520D01*
X2605120Y822580D01*
X2594620Y824520D01*
X2586740Y829390D01*
X2582810Y838160D01*
Y861520D01*
G01X2565750Y784730D02*
X2556560Y778890D01*
X2551310Y771100D01*
X2550000Y762340D01*
X2551310Y754550D01*
X2557870Y746760D01*
X2565750Y741890D01*
X2573620Y740920D01*
X2582810Y742860D01*
X2589370Y749680D01*
X2592000Y756490D01*
Y765260D01*
G01Y756490D02*
X2595930Y750650D01*
X2602490Y745780D01*
X2610370Y743840D01*
X2618240Y745780D01*
X2624800Y750650D01*
X2628740Y759420D01*
X2627430Y768180D01*
X2622180Y776940D01*
G01X2615620Y703070D02*
X2623490Y697230D01*
X2627430Y690410D01*
X2628740Y682620D01*
X2626120Y672890D01*
X2619550Y666070D01*
X2611680Y664120D01*
X2603800Y665100D01*
X2597240Y668990D01*
X2584120Y688460D01*
X2574930Y697230D01*
X2561810Y703070D01*
X2550000Y705020D01*
Y664120D01*
G01X2928740Y920790D02*
X2850000D01*
G01X2928740Y943180D02*
Y898400D01*
G01X2850000Y861520D02*
X2928740D01*
Y838160D01*
X2924800Y830370D01*
X2915620Y824520D01*
X2905120Y822580D01*
X2894620Y824520D01*
X2886740Y829390D01*
X2882810Y838160D01*
Y861520D01*
G01X2865750Y784730D02*
X2856560Y778890D01*
X2851310Y771100D01*
X2850000Y762340D01*
X2851310Y754550D01*
X2857870Y746760D01*
X2865750Y741890D01*
X2873620Y740920D01*
X2882810Y742860D01*
X2889370Y749680D01*
X2892000Y756490D01*
Y765260D01*
G01Y756490D02*
X2895930Y750650D01*
X2902490Y745780D01*
X2910370Y743840D01*
X2918240Y745780D01*
X2924800Y750650D01*
X2928740Y759420D01*
X2927430Y768180D01*
X2922180Y776940D01*
G01X2928740Y684570D02*
X2926120Y692360D01*
X2919550Y698200D01*
X2911680Y702100D01*
X2901180Y705020D01*
X2889370Y705990D01*
X2877560Y705020D01*
X2867060Y702100D01*
X2859180Y698200D01*
X2852620Y692360D01*
X2850000Y684570D01*
X2852620Y676780D01*
X2859180Y670940D01*
X2867060Y667040D01*
X2877560Y664120D01*
X2889370Y663150D01*
X2901180Y664120D01*
X2911680Y667040D01*
X2919550Y670940D01*
X2926120Y676780D01*
X2928740Y684570D01*
G54D15*
G01X-2700000Y-927140D02*
X-2903200D01*
G01Y-820460D02*
X-2700000D01*
G01X-2801600D02*
Y-927140D01*
G01X-2700000Y-670600D02*
X-2703390Y-690920D01*
X-2716930Y-708700D01*
X-2737250Y-723940D01*
X-2760960Y-734100D01*
X-2788050Y-739180D01*
X-2815150D01*
X-2842240Y-734100D01*
X-2865950Y-723940D01*
X-2886260Y-708700D01*
X-2899810Y-690920D01*
X-2903200Y-670600D01*
X-2899810Y-650280D01*
X-2886260Y-632500D01*
X-2865950Y-617260D01*
X-2842240Y-607100D01*
X-2815150Y-602020D01*
X-2788050D01*
X-2760960Y-607100D01*
X-2737250Y-617260D01*
X-2716930Y-632500D01*
X-2703390Y-650280D01*
X-2700000Y-670600D01*
G01X-2903200Y-467400D02*
X-2700000D01*
G01X-2903200Y-525820D02*
Y-408980D01*
G01X-2700000Y-315000D02*
X-2903200D01*
Y-254040D01*
X-2893040Y-233720D01*
X-2869330Y-218480D01*
X-2842240Y-213400D01*
X-2815150Y-218480D01*
X-2794830Y-231180D01*
X-2784660Y-254040D01*
Y-315000D01*
G01X-2903200Y-91480D02*
Y-30520D01*
G01Y-61000D02*
X-2700000D01*
G01Y-91480D02*
Y-30520D01*
G01Y88860D02*
X-2903200Y195540D01*
G01Y88860D02*
X-2700000Y195540D01*
G01Y396200D02*
Y294600D01*
X-2903200D01*
Y396200D01*
G01X-2804990Y355560D02*
Y294600D01*
G01X-2903200Y497800D02*
X-2700000D01*
Y599400D01*
G01Y919440D02*
X-2835460D01*
G01X-2808370D02*
X-2821920Y932140D01*
X-2832080Y944840D01*
X-2835460Y962620D01*
X-2832080Y975320D01*
X-2821920Y990560D01*
G01X-2791440Y1120100D02*
Y1201380D01*
X-2815150Y1193760D01*
X-2828690Y1181060D01*
X-2835460Y1163280D01*
X-2832080Y1145500D01*
X-2821920Y1130260D01*
X-2798210Y1120100D01*
X-2777890Y1115020D01*
X-2757570D01*
X-2737250Y1120100D01*
X-2716930Y1132800D01*
X-2703390Y1148040D01*
X-2700000Y1165820D01*
X-2706770Y1183600D01*
X-2727090Y1201380D01*
G01X-2835460Y1315680D02*
X-2700000Y1361400D01*
X-2835460Y1407120D01*
G01X-2808370Y1584920D02*
X-2818530Y1595080D01*
X-2835460Y1602700D01*
X-2859180Y1607780D01*
X-2879490Y1602700D01*
X-2893040Y1592540D01*
X-2903200Y1574760D01*
Y1506180D01*
X-2700000D01*
Y1590000D01*
X-2713540Y1607780D01*
X-2733870Y1617940D01*
X-2757570Y1623020D01*
X-2781280Y1617940D01*
X-2801600Y1602700D01*
X-2808370Y1584920D01*
Y1506180D01*
G01X-1800000Y0D02*
X-1900000D01*
Y400000D01*
X-1100000D01*
Y0D01*
X-1200000D01*
G01X-602000Y-1644000D02*
X602000D01*
Y-2756000D01*
X-602000D01*
Y-1644000D01*
G01X-827000Y-937130D02*
X-735980D01*
X-716930Y-930700D01*
X-704230Y-917830D01*
X-700000Y-901740D01*
X-704230Y-885650D01*
X-716930Y-872780D01*
X-735980Y-866350D01*
X-827000D01*
G01X-752910Y-802770D02*
X-767730Y-791500D01*
X-776200Y-781850D01*
X-780430Y-768980D01*
X-776200Y-757720D01*
X-767730Y-749680D01*
X-755030Y-743240D01*
X-740220Y-741630D01*
X-727510Y-743240D01*
X-714810Y-749680D01*
X-704230Y-759330D01*
X-700000Y-770590D01*
X-704230Y-783460D01*
X-716930Y-794720D01*
X-735980Y-801160D01*
X-757150Y-802770D01*
X-784660Y-799550D01*
X-799490Y-794720D01*
X-814300Y-786680D01*
X-824880Y-775420D01*
X-827000Y-764160D01*
X-822770Y-752900D01*
X-812180Y-744850D01*
G01X462870Y-1523000D02*
Y-1614020D01*
X469300Y-1633070D01*
X482170Y-1645770D01*
X498260Y-1650000D01*
X514350Y-1645770D01*
X527220Y-1633070D01*
X533650Y-1614020D01*
Y-1523000D01*
G01X627800Y-1650000D02*
X639060Y-1647880D01*
X651930Y-1641540D01*
X659970Y-1630950D01*
X663190Y-1616130D01*
X659970Y-1601320D01*
X650320Y-1588620D01*
X635840Y-1582270D01*
X619760D01*
X610100Y-1578030D01*
X602060Y-1567450D01*
X598840Y-1552630D01*
X603670Y-1537820D01*
X614930Y-1527230D01*
X627800Y-1523000D01*
X640670Y-1527230D01*
X651930Y-1537820D01*
X656760Y-1552630D01*
X653540Y-1567450D01*
X645500Y-1578030D01*
X635840Y-1582270D01*
X619760D01*
X605280Y-1588620D01*
X595630Y-1601320D01*
X592410Y-1616130D01*
X595630Y-1630950D01*
X603670Y-1641540D01*
X616540Y-1647880D01*
X627800Y-1650000D01*
G01X1100000Y-2400000D02*
X1500000D01*
Y-2800000D01*
X1100000D01*
Y-2400000D01*
G01Y-2450000D02*
X1500000D01*
G01Y-1800000D02*
Y-600000D01*
X2100000D01*
Y-1800000D01*
X1500000D01*
G01Y-500000D02*
Y700000D01*
X2100000D01*
Y-500000D01*
X1500000D01*
M02*
